<svg xmlns="http://www.w3.org/2000/svg" viewBox="0 0 512 512"><path fill="none" d="M0 0h512v512H0zm312.5 76.7q-35.6-10.1-72.6-8.5-1.7 0-3.2.4l-3.1 1q-39.2 2-75.1 17.7-2.7-1.2-4.2-3.7L153 81q-6-8.2-13.4-15-2.5-3.1-8.3-6.7-13.7-8.2-28-8.7l-2.1.1q-1.5 0-3-.4-4.2 0-7.5 2.2l-3 2q-12 6.8-18.9 18.4Q61 86 57.4 101.7q-2.1 9.6-1.6 21.3.4 1 .6 2.2.1.8-.2 2.1-.5 1.8-.5 3.6 0 1.4.8 3.5 1.8 4.3 1.3 9.1 2.8 12.5 4.5 18.5.4 1.6 0 2.8l-1 2.2q-4.1 3.7-6.9 8.4L51 181q-2 3.3-3.6 6.8-19 32.2-24 69.4-1.7 4.3-1.4 9-1.4 9.4-1 19l.3 11.4q.1 10.4.7 14.3 2.8 17.9 8.6 35l1.1 2q5.4 16.3 13.4 31.4 4 7.8 6.2 10.5 5.3 8.8 11.7 16.8l2.8 3.8q2.5 3.4 5.8 6.2l6.7 8.2q5.7 4.8 11.2 9.9 5.4 5 9.8 8 9.1 6.1 18.9 11.3 7 5 14.4 9.6 4.5 3.3 10.6 5.6 12.5 4.8 23 7.7 4 1 10.6 4.3l1 .1q3-.2 6.2.1l9.8 2.4q4.1 1 32 2.9 7.7.5 15.4 0 15.4.7 30.6-.9 4.6-.4 11.3-2l11.4-2.4q6.1-2.3 12.5-3.7 9.7-4.2 19.6-8 2.7-1.1 6.4-3.3 3.5-2.2 6.6-3.2 7.1-2.4 12.3-6.2 1.5-1.2 3.6-1.9 3.3-1 6-3.1 7-3.6 13.2-8.1 5.4-3.8 12.2-9.4 10.6-8.6 19.5-19 2.7-3.1 6.1-5.4 4.4-5 8.2-10.5 18.7-23 30-50.5l2.1-4.1q.6-1.4 1.2-4.4.4-2 1.2-3.7.7-1.4 1-3.2.3-1.7 1.2-3.2 1-1.7 1.2-3l.5-3a1.4 1 40.3 0 0-.2-1q-1-1.5.8-2.4 1.5-2.1 1.3-4.7a1.8 1.6 60.6 0 1 .2-1q1.8-3.1 1.8-6.7 1.8-10.2 2.6-20.4l.6-4.3q.3-2.4 0-5-.8-5.6-.2-11.9-.7-3-.1-6a1.6 1.5 42 0 0-.1-1l-.5-1.6.3-2.2q.4-1.3 0-2.2-1-2.4-1.1-5a1 1-3.4 0 1 .8-.9q6.3-.5 11.4-4 3.7-2.5 7-5.4 4-2 5.9-6.3l2.6-4a1.4 1.1 61.1 0 0 .2-.8q-.2-1.5.8-2a1.7.9-10.4 0 0 .8-.5q5.3-8.7 4.8-19l.2-1q.4-.8.1-1.7l-.4-1.4q-1.3-5.9-4.5-11.2-.4-.7-1-1-2.1-1.3-2.4-2.5a2 2-83.2 0 0-1-1.3q-5-2.9-8.6-5.9-1.4-1.2-7.2-2.6-2.6.1-5.2-.1-3.8-.4-5.1-.3-5.6.4-10.5 3.1-4.5 1.4-8.8 3.2l-.7-.2q-15.4-28.7-38.1-51.4-1.3-1.3-.6-3l6.3-15.5q6.5-17.1 8.4-36.5 2-18.8-4.5-36l-1.2-2q-6.6-13-19.1-19.5-4.1-2.1-8.8-2.5-11-.9-21 3-3.6 1.3-10.1 5.4l-9.8 5.8L333 42q-6 6-10.3 13a1.2 1 57 0 0 0 1q.2.8-.5 1a1.7.5-7 0 0-.9.3q-2.9 2.9-3.9 7.1-.4 1.6-1.3 3.2t-1.2 3l-.8 4q-.4 1.4-1.7 2"/><path fill="#090706" d="M394.9 19.5Q407.4 26.1 414 39q-1.2-.5-.6 1.2 3.5 10 4 20.5v1.6q-.2.9.2 1.5a2 2-38.1 0 1-.3 2q-1.4 1.7-1 3.5l.9 4.4q.3 1.6-1.7.8l-2.2-1q-2.9-.7-2.8-3.2 0-3.8.8-7.8v-1.4q-1.8-9.5-4-17.6-.8-2.5-2.5-4-.5-1.9-1.8-3.2-.4-1.3-1.5-2-1-2.3-3.2-2.8-.4-.6-1-1l-3.8-4.8a1.6.8 65.8 0 0-.7-.6q-7.6-2.2-15.6-1.4-6.5.2-12.3 2.8-4 1.6-11 5.9-8.4 5-15 12.6l-9.2 9.3q-3.7 2.4-7.3 7.6-.4.6-1 2.5l-2 5.3q-1.8 3.5-2.6 7.4-.3 1.6-1.5.4-1-1-2.6-.7h-.2q1.3-.7 1.7-2.1l.8-4q.3-1.4 1.2-3 1-1.6 1.3-3.2 1-4.2 4-7a1.7.5-7 0 1 .8-.5q.7-.1.4-1a1.2 1 57 0 1 .1-.9q4.4-7 10.3-13l12-11q5-2.7 9.9-5.7 6.5-4 10-5.4 10.1-3.9 21-3 4.8.4 8.9 2.5"/><path fill="#685b4f" d="m393.5 25.7 3.7 4.8q-2-.3-3.4-1.5-2.3-2-2.8-2.2-6.4-3.2-13.7-3 7.9-.9 15.5 1.3a1.6.8 65.8 0 1 .7.6"/><path fill="#f7efd6" d="M377.3 23.7q7.3-.1 13.7 3.1l2.8 2.2q1.4 1.2 3.4 1.5.7.4 1 1 1.3 1.9 3.3 2.7 1 .8 1.5 2 .5 1.8-1 2-9.9-10.8-23.8-11.4-5.7-.3-12 2.1-12 4.5-21.9 13l-4.8 3.6q-.6 0-.5-.5 6.5-7.6 15-12.6 7-4.3 11-6 5.7-2.5 12.3-2.7"/><path fill="#443e38" d="M402 38.3q1 .8 1.6 1.8.3.4.6.5.7.2.6-1.1 1.7 1.5 2.4 4 2.3 8.1 4 17.6.2.7 0 1.4-.6 4-.7 7.8 0 2.5 2.8 3.2v1q-1.7.3-2.4 3-.4 2-.1 3.8.4 2.6-.7 5-.7 1.4-.5 5 0 2.8-.3 4.9-1.6 9-3.8 17.8-3.5-.8-6-3.2a1.4 1.2-41.2 0 0-1.7 0l-5.4 4.1a1 1 33.3 0 1-1 .2q-1.2-.4-.4-1.6.3-.4.4-1l.4-1.2q4.5 1.7 1-1.6-1-.9-.2-1.6a1.6.6-37.2 0 0 .5-.8q.3-1.6-1.6-1.3-.8-1.5-.3-3 .5 1.2 1.4.3 1.3-1.3 1.6-.1a1.7.7 82.9 0 0 .5.8q1.8 1.6 2.7-2.3a.8.8 3.8 0 0-.9-1q-.7 0-2-.5-.3 0-.8-.6t-1.2.2l.8-3.5q1.2-.4 2-1.2a1.2 1-25 0 0 .5-.8q0-1.3-1.5-1.3-.7-1.6.4-3a3 3 59.2 0 0 .7-2.5q-.8-3.7 1-6.4 1-1.6 0-3a1.7.7 40.7 0 1-.5-.8L395 70q1.2-.3 2-1.4a1.6.9-68.8 0 1 .7-.6q1.2-.3.8 1-.3 1 .6 2a1.4 1.2-71.5 0 1 .4.8l.2 5.7a1.6.7 38.1 0 0 .4.9q1.2 1.3-.4 2.3a1 1-17.1 0 0-.5.8q-.1 3.3-1.3 4.4-1.8 1.8.9 3.6a1 1 22.5 0 0 1.5-.7q.9-4.5 1.4-9.4.3-2.1-.3-5.2-.6-3.4-.4-7 .2-1.6-.9-2.7a1 1-51.1 0 1-.1-1.5q.6-1-.4-1.5a4 4-85.9 0 1-1.5-1.7q-.8-2.1-2.7-2-1.1 0-.4-1 1-1.4 1.1-3.2a1 1 28.9 0 0-.2-1q-8.2-10-21.4-11-12.7-1-22.5 6.9l-7.7 6.4Q334.6 63 329.7 75q-3-3.5-7.5-4.6a1.6 1-37 0 0-.9 0q-1.2.5-1.8-.7l1.9-5.3q.6-1.9 1-2.5 3.6-5.2 7.3-7.6 0 .4.3.4l.4-.2q4.8-4.2 9.1-9l4.8-3.7q9.8-8.4 21.8-12.9 6.4-2.4 12-2.1 14 .6 24 11.5"/><path fill="#716257" d="M398.3 31.5q2.3.5 3.2 2.7-2-.8-3.2-2.7"/><path fill="#83786e" d="M403 36.3q1.3 1.3 1.8 3.2.1 1.3-.6 1.1-.3 0-.6-.6-.7-1-1.6-1.7 1.5-.3 1-2"/><path fill="#312f2a" d="M414 39q1 1.4 1.2 2 6.4 17.2 4.6 36-2 19.4-8.6 36.5-1.1.4-1-1 .7-4.3 2.4-8.6 1.2-2.7.2-5.5-.6-1.6.6-3.6 1.3-2.2 1.6-3 1.3-4.3 1.3-8.8.7-2.4.2-5-.4-1.8-1.7-.4-.7.8-2.1 1.2-1.1.4-.8-.6 1-1.1 1.7-2.4.5-.9-.4-1.3v-1l2.3 1q2 .8 1.7-.8l-1-4.4q-.3-1.8 1.1-3.5a2 2-38.1 0 0 .3-2q-.4-.6-.3-1.5l.2-1.6q-.6-10.5-4.1-20.5-.6-1.7.6-1.2"/><path fill="#050504" d="M374.5 41.6q13.2 1 21.4 11a1 1 28.9 0 1 .3 1q-.2 1.8-1.2 3.3-.7 1 .4.9 1.9-.1 2.7 2a4 4-85.9 0 0 1.5 1.7q1 .6.4 1.5a1 1-51.1 0 0 .1 1.5q1 1 1 2.8-.3 3.5.3 6.9.6 3 .3 5.2-.5 4.9-1.4 9.4a1 1 22.5 0 1-1.5.7q-2.7-1.8-.9-3.6 1.2-1 1.3-4.4l.5-.7q1.6-1.1.4-2.4a1.6.7 38.1 0 1-.4-.9l-.2-5.7a1.4 1.2-71.5 0 0-.4-.9q-.9-1-.6-1.9.4-1.3-.8-1a1.6.9-68.8 0 0-.8.6q-.7 1-1.9 1.4-2-7.8-5.4-15-1.2-2.6-3.3-4.1-6-4.2-13.2-4.1-4 0-8.7 2.5-17.2 9-27.7 25.7l-5 7.8q-1.8 1.3-1.2 2.7.4.8 2 1.5 4.8 2 9.8 3.7 7 3.1 13.6 7 5.2 3 10.5 5.6 7.1 3.6 13.2 8.9 1.6.7 2.5 2.3a1.6.9 73 0 0 .7.7l5 1.8q2 .7 2.6 2.3.8 2 2.8 3.1l2.4 1.5q2.5 1.8 4.8 3.9h.4q2.4-3.3 2.5-6.5l2.2-7.3q2.2-8.8 3.8-17.8.4-2 .3-5-.2-3.5.5-4.9 1-2.4.7-5-.3-1.9.1-3.7.7-2.8 2.4-3.1.8.4.3 1.3-.7 1.3-1.7 2.4-.3 1 .8.6 1.4-.4 2-1.2 1.4-1.4 1.8.5.5 2.5-.2 4.9 0 4.5-1.3 8.8-.3.8-1.6 3-1.2 2-.6 3.6 1 2.8-.2 5.5-1.7 4.3-2.3 8.6-.2 1.4 1 1L405 129q-.7 1.8.6 3 22.7 22.8 38.1 51.5l.7.2q4.3-1.8 8.8-3.2 5-2.7 10.5-3.1l5.1.3 5.2.2q5.8 1.3 7.2 2.5 3.6 3 8.5 6a2 2-83.2 0 1 1 1.2q.4 1.2 2.5 2.5.6.3 1 1 3.2 5.3 4.5 11.2l.4 1.4q.3.9 0 1.8-.3.5-.3 1 .5 10.2-4.8 18.9a1.7.9-10.4 0 1-.8.5q-1 .5-.8 2a1.4 1.1 61.1 0 1-.2.9q-1.2 2-2.6 3.9-1.8 4.2-6 6.3-3.2 2.9-6.9 5.4-5.1 3.5-11.4 4a1 1-3.4 0 0-.8 1q0 2.5 1 4.9.5 1 .1 2.3-.4 1.4-.3 2.1l.5 1.7a1.6 1.5 42 0 1 0 1q-.6 3 .2 6-.6 6.2.2 11.8.3 2.6 0 5l-.6 4.3q-.8 10.3-2.6 20.4 0 3.6-1.8 6.8a1.8 1.6 60.6 0 0-.2.9q.2 2.6-1.3 4.7-1.7.9-.8 2.4a1.4 1 40.3 0 1 .2 1l-.6 3q-.2 1.3-1.1 3-.9 1.5-1.2 3.2t-1 3.2q-.8 1.8-1.2 3.7-.6 3-1.2 4.4l-2.1 4q-11.3 27.5-30 50.6-3.8 5.5-8.2 10.6-3.4 2.2-6.1 5.3-9 10.4-19.5 19-6.8 5.6-12.2 9.4-6.3 4.5-13.1 8-2.8 2.2-6 3.2-2.2.7-3.7 1.9-5.1 3.8-12.3 6.2-3 1-6.6 3.2-3.7 2.2-6.4 3.3-9.9 3.8-19.6 8-6.4 1.4-12.5 3.7l-11.4 2.4q-6.7 1.6-11.4 2-15.1 1.6-30.4.9-7.8.5-15.6 0-27.8-1.9-31.9-2.9l-9.8-2.4q-3.1-.4-6.2 0l-1-.2q-6.6-3.2-10.6-4.3-10.5-3-23-7.7-6-2.3-10.6-5.6-7.4-4.6-14.4-9.6-9.8-5.2-19-11.3-4.3-3-9.7-8-5.5-5-11.2-9.9l-6.7-8.2q-3.3-2.8-5.8-6.2l-2.8-3.8q-6.4-8-11.7-16.8-2.2-2.7-6.2-10.5-8-15.1-13.3-31.4l-1.2-2q-5.8-17.1-8.6-35-.6-3.9-.7-14.3l-.4-11.4q-.3-9.6 1.1-19-.3-4.7 1.3-9 5-37.2 24.1-69.4 1.6-3.5 3.6-6.8l3.4-5.7q2.8-4.7 6.8-8.4-.2 1.3.2 2.5l.6.3 3-.6a1.1 1-21.1 0 0 .7-1.6L64 165a.9.6 66.6 0 0-.7-.4l-1.1.2q.4-1.2 0-2.8-1.7-6-4.5-18.5.5-4.8-1.3-9.1-.9-2.1-.8-3.5 0-1.8.5-3.6.3-1.3.2-2.1-.2-1.2-.6-2.2-.5-11.7 1.6-21.3Q61 86 68.8 72.8q6.9-11.6 18.8-18.5l3-2q3.4-2.1 7.7-2 1.4.4 2.9.3h2.1q14.3.4 28 8.6 5.8 3.6 8.3 6.7 7.4 7 13.3 15.2l1.4 2.5q1.5 2.5 4.2 3.7L160 90l.7.2q10.1-3.6 20.1-7.5 1.5-.5 2.8-.1 1.3.3 1.8.2 1-.3 1.5-1.4a1.2 1-80.8 0 1 .6-.6q11.7-3.6 13.5-3.9 11.2-2 22.5-3.5 5.6-1.4 11.3-.7 6-.8 12-1.3 5.4-.6 10.7.9a1.3 1-47.6 0 0 1-.2q1.5-.8 3.4-.4 4.7 1 10.4.7 10 1.6 20.1 2.6l19.8 4.7 4 1.7q5 .9 8 4a1 1-56.4 0 0 1.5-.3l4-10.2q4.9-11.9 14.6-20.1l7.7-6.4q9.8-8 22.5-7M70.7 81.5l-2.4 4.8q-3.2 6-4.3 12-1.7 9.2-2 20.2l-.2 2q-.1 2.4-.5 4.8.3 2.9-2.1 1.7a.4.3 18.6 0 0-.6.2q0 .9 1.6 1a1 1 2.3 0 1 1 1.2q.2 6.2.8 12 .4 4.9 2 10.5 2.7 9.5 2.7 10.4 0 3.7 2.7 7.5 2.1 3 3.1 8.2 2 4.2 3.3 8.7 2.2 3 3 6.5l-.3.7q-1.2.2-1.3-1.4-.2-1.7-1.4-2.8l-2.2-1.8q-3.6-4.7-5.4-10.4-.3-.9-1-1.5.3-3-1.4-.7-1.3 1.7-2.8 3.2-1.5.5-2 2-.7 1.5-2.3 1.7l-.6.5q-.5 4.4-3.2 7.8-1.8 2-2.5 3.6l-1.7 4q-3.1 5.4-5 11.3-5 11.3-9 22.8-2.5 7.5-3 13-1 2.5-1.6 5-.2.7-.4 3.3 0 1.3-.4 3.3-2 9.8-2.7 25.5 0 .8.3 2.3.2 1.2 0 2.4-.6 4.5.4 9 .2 1 0 1.6-.2.8-.7 1.6v.8q1.2 2.2 1.2 4.5v4.4q.8 5.4 1.9 10.7-.4 4 1.3 7.7 1.4 3.2 1.7 6.8 3.6 12.8 5.4 16.6 2 4.3 2 7.6a1.8 1.6-65.1 0 0 .4 1q1.4 2 2.7 4.3 1.7 2.1 1.4 4.9a1.1.7-71.5 0 0 .2.9l1.9 1.8.6.7 5.3 10.7q.4.7 1 1.3 3.2 2.6 3.9 5.6.8 3.3 4.8 7.5 2.9 3.4 5 7.3 1 1.4 2.4 2.4 1.7 1.2 2.5 2.3l1.7 2.6q.8 1.3 2.1 2.4 4 3.2 7.2 7.3 3.7 2.8 7 6 1.5 2.2 3.4 3.9 5.7 4.1 11.1 8.6 2.3 2 6 4.3 3.2 2 6.1 4.3 10.1 6.3 20.7 11.6l24.3 10 2.6 1.4q1.9 1 4.1.7h1q15 5 30.5 7.1 6.3 1.7 12.7 2.7 2 .3 4.6-.2 4-.8 8-.2l6 1q4.8.2 10.4-.6 5.4-.7 15.2-1.1 6.2-.2 12.3-1.6 17.4-2.5 34.4-7.3 4.1-1.2 9.5-3.5l9.4-3.9q5.2-3.2 11.4-5.1 1.8-.5 3.1-1.7 2.5-2.1 6-3.6l1.6-.4q1.1-.3 2-1.4l.8-.5q2-.2 3.3-1.4 3.2-2.8 7.3-3.1a1 1 13.3 0 0 .8-.5q3-4.7 8.4-6 1.3-.4 3.8-2.8h.6l.3.1a1.4.7 41.8 0 0 1 .3q2.8-.5 4.2-3.5.2-.6.7-1.1 4-4.9 8-7.7h.4q2.3 2.6 3.9.1a1.5 1.4 5.3 0 1 .7-.5q1.7-.6 2-2.3l-.5-.5q-2.9-.3.7-3 1.4-1 2.5-2.3 4.7-5.4 10.7-11 4-3.6 8-10 2.6-2.6 4.4-5.8.6-1.2 2-2.6 1.3-1.3 1.7-2.8.6-2.4 2.4-4 3-2.5 4-6.2.9-3.2 3.5-5.2 1.1-.9 1.7-3.6a1.3 1-18.7 0 1 .5-.7q.5-.4.6-1 .8-6 6.7-6.6 1.5-.2.3-.7a1 .8-37.2 0 0-.7 0q-1.5.6-2.3-.5a.8.7-48.9 0 1 0-.8q3.2-5.2 3.3-7.1.1-4.5 4.1-5.4.5 0 .1-.3-2-1.3-1-3.7 1.6-2 2.5-4.2.4-1 1-4.4l1-4.4q2.9-10 5.1-22.4.4-2 1-7.5.3-3.7 1.1-7.4-.3-3.9 0-7.7l.4-7.7q0-12-1.3-24a1 1-80.5 0 0-.7-.8q-7-3.4-16.8-6.5-1-.3-1.6-1l-7.2-6.8q-4.4-8.2-4.5-17.6 0-1 .8-2.7l.1-1q-.6-4.3 1.5-8.8 4.1-8.7 10-16.7a1 1-44.3 0 0 0-1.4q-3.2-4.7-5.6-9.8-1.8-3.7-6.4-10l-9.2-12q-5-6.5-9.7-11.4-11.2-11.6-17.4-17-8.6-7.4-21.3-15-10-6.2-12.7-7.7-6.4-3.7-13.2-6.6-8.7-3.7-18.7-7.3-10.8-4-22.8-6.2-4-.8-6.9-.8l-5-1q-13.5-3.7-27.4-3.1-5.4-1.7-10.9-.4-4-.4-8 .2-6-.8-11.9.3a1 .8-23.6 0 1-.9-.2l-1.3-1.3a1.5.8 56.6 0 0-.8-.4q-1.6 0-2.6 1.6-1.4 2.6-3.2.5a1.7 1 65.7 0 0-.8-.6q-1.4-.3-2.2.9a1.1.9-69.3 0 1-.8.4q-5.5.3-10.9 1.1-1-.2-1.9-.7h-.8q-3.4 2.4-7.1 3.2-7 1.4-12.5 4-6 .5-11.2 3.4l-2 .5q-.7-.1-1 .3-3.5 1.2-6.6 3-3.2.8-.4 2.3.5 2.8 2 5.1 2 4 4.2 7.7a1 .8 45.9 0 1 0 .9q-.7 1.4-2.2.3-2.5-1.8-3.3-4.8a1.4 1.4-4.4 0 0-1.2-1q-2.2-.3-.9-2.3.7-1 .2-1.8l-.8-.2q-.7.2-1.4.1-.5 0-1-.6-1.3-1.5-2.5-3.2a1.4 1.4-22.4 0 0-1.4-.5l-5 1q-2.8.6-.7-1.7 1-1 2.5-1.6a1.1 1.1 59.8 0 0 .4-1.8q-12.5-15.8-28.2-28-1.2-1-2.7-1.1-7.3-3.6-15.3-5.3-2.1-1-4.2-.7l-4.1.3q-4.1 0-7.6 1.7-4.7 2.3-10 5.8-3 2.1-6 6.3-4.2 6.2-5.9 10.1m78.6 1.2a1.5 1 72.6 0 0 .5-1.8 1.5 1 72.6 0 0-1.4-1.2 1.5 1 72.6 0 0-.5 1.8 1.5 1 72.6 0 0 1.4 1.2M464.5 182q-10.5-.2-17.8 7-3.2 2-5 5.3-1.2 1.5-3.2 1.3a1.3 1 22.9 0 0-.9.2q-2.6 2-3.3 5-.2 1 .7.8a1.1 1 3.9 0 0 .7-.6l1.5-3.2a1.2.5-72.1 0 1 .6-.7q1-.3 1.4.9.2 1.6-1 2.7-.8.8-.7 2-2 1.4-2 3.8l-.8 1.5q-1 .7-1 1.8v1.3q-2.7 15.8 9.6 25.4 2.7 2.2 4 2.7l10.7 4.3q2.3 1 4 1h4q2 0 3.2-1.2 3.8-2.4 5.6-3t2.5-2q.8-.6 1.8-.7a1 .7 2.8 0 0 .7-.5q.4-1.1-.6-2.1-.2-1.1 1.7-1.3a1.3 1.2-72.2 0 0 .8-.5l3.3-4 3.2 1 .7-.5q.7-2.2-1.9-3.2l-.1-.5a1 .5-18.8 0 0-.8-.1q-3.5.8-.4-1.7 1.1 1.7 1.3-.4 4-2.9 1.4-6.6v-.8q.5-.6 1.4-.2a.4.3 20.4 0 0 .6-.2q.6-2.7.1-5.5 1 0 .4-.6l-.4-.2q-.5-.3-.7-1 2.5.4 1.3-1.1a1.5 1.3 32.4 0 1-.3-1q.2-4.4-1-7.6-.5-1.5-1.8-2.4-4.4-3.2-.5-3.3 1.4-.1.2-1l-4-2.8q.1-.4-.2-.5-7.2-9.1-19-7m31.1 18.6q.7-1.8-1.4-1.4l-.6.5q-1.7 4.4 1.1 2.1.7-.5 1-1.2M40.3 214q-1 .3-1.1.8a.7.5 13.2 0 0 .5.6q1.6.3 1.2-1.1zm451.3 12.7h-.3q-.6.1 0 .2 1.9 0 .1-1.1a.4.4 23.4 0 0-.6.2q0 .6.8.7.2 0 0 0m-80.8 179.4q-.1 1 1 .6a1.2 1 89.5 0 0 .6-.7q.9-2.7-1.2-.6-.3.3-.4.7"/><path fill="#b8b599" d="M339 45q0 .6.5.5-4.3 4.8-9.1 9l-.4.2q-.3 0-.3-.5z"/><path fill="#c77f6d" d="M389.6 55q3.4 7.2 5.4 15l.9 7.3a1.7.7 40.7 0 0 .4.8q1.2 1.4.1 3-1.8 2.7-1 6.4a3 3 59.2 0 1-.7 2.5q-1 1.4-.4 3-1.5 1.4-1 3.3l-.8 3.5-1 2.5-1 .4a.8.6 58.5 0 1-.8-.4l-2.1-2.6q-21.9-14-31.7-18.9-5.1-2.6-15.8-4.4h-1.7q-1.3 0-1.7-1.4 10.4-16.8 27.7-25.7 4.7-2.4 8.7-2.5 7.2-.1 13.2 4 2 1.6 3.3 4.2"/><path fill="#faf3df" d="M108.5 58q8 1.7 15.3 5.3v1q-5-.7-9.8-2.5-3.2-.3-6.2-1.1a1.5 1.1-43.1 0 0-1 .1q-1.3.6-4.4.2-1.6-.3-3.1.3-4.4 1.5-9.3 3.8-3.6 1.7-6 4-3 2.8-4.8 5.6-3.8 5.6-9.2 15.5-2.6 4.8-5.2 14.8-.6 2.1-2 13.3-.5 0-.8.2.3-11 2-20.2 1-6 4.3-12 4.3.5 2.5-2.4a1.5 1.3-61.3 0 1-.2-.9l.1-1.5q1.7-4 6-10 3-4.3 6-6.4 5.2-3.5 9.9-5.8 3.5-1.7 7.6-1.7l4-.3q2.2-.2 4.3.7"/><path fill="#443e38" d="M107.8 60.7q3 .8 6.2 1 4.7 1.9 9.8 2.5l2.7.3q15.7 12.1 28.2 28a1 1 59.8 0 1-.4 1.7q-1.5.5-2.5 1.6-2 2.3.7 1.7l5-1a1.4 1.4-22.4 0 1 1.4.5q1.2 1.7 2.5 3.2.5.6 1 .6.7.1 1.4-.1l.8.2q.5.8-.2 1.8-1.3 2 1 2.3a1.4 1.4-4.4 0 1 1.1 1q.8 3 3.3 4.8 1.5 1 2.3-.3a1 .8 45.9 0 0-.1-1q-2.2-3.7-4.2-7.6-1.5-2.3-2-5.1 3.8-.6 5.7-1.5 2.1-1.1 1.2-3.8.4-.4 1-.2-.4 3.7 2.8 2.5 7-2.8 20.5-4.5 17.3-5 35.1-6.6 1.2 0 5.7-1 2.8-.6 5.8-.3 1.1-.2 2.2-.7.4-.2 1-.1l7 .7q9.7.8 19.4.7l22.5 2.4q2.7.3 3.2-.2.8-.8-.1-.8-1.5.1-2.8-.6 2.9 0 7 .8 11.9 2.2 22.7 6.2 10 3.6 18.7 7.3 6.8 2.9 13.2 6.6l12.7 7.6q12.7 7.7 21.3 15.1 6.2 5.4 17.3 17 4.9 5 9.8 11.5l9.2 12q4.6 6.2 6.4 9.8 2.4 5.2 5.7 9.9a1 1-44.3 0 1 0 1.4q-6 8-10 16.7-2.2 4.5-1.6 8.8l-.1 1q-.8 1.6-.8 2.8 0 9.3 4.5 17.4-1.1 2.8-3.5 1l-1-3.1q-2.5-3.3-3.5-7.3-.4-3.1-1.6-6-2.7-6.8-5.7-13.4-3.4-7.7-6.8-12.8-9.8-14.6-24.3-25.4-3.2-2.3-6.3-3.6-.5-.2-.8-.6-1.6-2-4-3-6-3.7-12.6-6-5.4-2-10-3.3-5.2-1.5-10.5-2.1-.8-.1-1.8.2l-1.7.3q-1.2.2-2.7-.3-4.7-1.6-9.7-1.8-3.1-.1-6.2-.8-2.5-.5-3.2 1.9-1.1 3.5 2.1 2.7 4-1 8-.7l3 .6q1.6.3 3.3.3 5.4 0 10.8 2.2-4.8 0-12.3-1-14-1.9-28.5 2.6-3.8 1.1-7.7 1.5-9.8 4.3-19.7 8-4.6 2.3-8.2 5.9-3 1.4-5.9 3-.4-3.8 3.2-3.6a1.3 1.1 23.6 0 0 .9-.2q2.4-2 2.4-4.4 0-3 3.6-2.4a2.6 2.5-57.4 0 0 1.7-.4q2.4-1.5 5.6-1.3a1 1 26.1 0 0 1-.3q3.3-3 6.7-3.5 1.5-.3 2.1-1.2a1.5 1-68.3 0 1 .8-.5q5-1.2 10-2.7 4 .2 6.3-.7 3.2-1.2 5.2-1.5a1 .7 1.4 0 0 .7-.4l1-3.5q.3-.6-.4-.4-4 1.4-8.2 1.9-5.6.5-7.6 1-19.4 5.1-36.2 17-1 .7-.6 1.5a1.4.6 53 0 1 .2.9q-.3 1.3-1.6 1.4a.8.6 70.4 0 1-.7-.4q-.5-1-1.5-.4-2.2 1.3-5.2 4.3l-.5.5q-.9.7.1 1.6.9.8-1 3-1 1.1-2.4-.2a.8.7-44.1 0 0-1 0q-6.8 6.1-11.3 14l-2 3q-2.4 3.3.7 7 1.5 1.7-.5 1.2-1.4-.3-3-2.2a.4.4 40.7 0 0-.6 0q-5.2 8.5-8.6 17.8a1 1 12.7 0 0 .6.9q2.1.2.7 1-2 1.2-3 3.3-.4 4-1.7 7.8-1 3.1-.4 6.4-.2 2.5 1 1.4a1.5.3-80.4 0 0 .3-.9l1.5-6a1 1 4 0 1 .7-.6q.4 0 .7.2a.9.6-63 0 1 .1.9q-1.7 4.4-1.5 8 0 1.6 2 1.8v2h-1.7a1 1 69.9 0 1-.8-.5l-2-2.7q-.3-.5-.7-.6-1.2-.3-.8 1.2.8 1.4 1 3a1 1-32.2 0 1-.2.9q-2 2.2-1 5a2 1-62.5 0 1 0 .9l-.5 2.2a1.6.6 56.5 0 0 .2 1q.3.6.3 1.4 0 .5-.6 1.7-1 1.8 0 3.9 1.6 3 .2 6a1.3 1.3 25.3 0 0 .6 1.7q1.7.8 1.8 2.6.1 3.7 1.7 7 .6 1.5-.6 2.5-.5-.6-.8.2-.4 1.5-1.3.7a1 .8 49.8 0 0-.9-.2q-2.5.8-2.7 4-.4 5.7.8 9.6.8 6 2.9 11.8 5.2 10.5 8.5 21.7 1.1 3.6 2 5.6 1.4 2.9 3 5.2 1.7 2.5 2 5.2l.4.7q3.2 1.5 6 3.7 9.2 9.3 20 16.6l6.6 4.6q4 2.9 8.5 5 2.7 2.2 6.2 3 5 1.8 10.1 2.6 1.7.3 23.3 1.8l5.2.9q.4 0 1 .3 1 .6 2.2.3-.8 1.9.3 3.5a.9.7-20.5 0 0 .8.3l3.4-.6a.8.7-85.7 0 0 .6-.6l1-3.4q1 1 2.3.8l2-.3q4.3 0 8.7.6 4 .5 8 0 10.8-1.6 20.7-6.1l.8.2q.7 1.4-.6 2.3a1.8 1.3-16 0 0-.5.8l-2 5.7a1.6 1.4-10.6 0 1-.7.7q-3.3 2.3-6 5.4-4.5 2.9-9.2 5.4l.7-2.2a.8.7-85.4 0 0-.8-1q-4.5.7-5 4.2-.1 1.3-1.5 5.3-2.5-1.4-4.9-.2-5.8 4.4-12.3 8-2.3 1.1-4.7 1.8l-5 1.4q-1.4.3-2.4-.5l-.6.1-.6.6q2.5-4.7-3.4-3.2a2.2 1.9-82.1 0 0-1.3 1.1l-7.7 16.4q-3.3-1-5.7.8-3.1 2.2-6 2.5-6.6 2.2-13.5 3-4 .6-6.6 1.5a2 1.2-69.8 0 0-.7.6q-.9 1-1.3-.4-2.1-.8-4 .4-3.4-1.6-7.3-2-1 0-4 .6-2 .4-4.1.1-3-.3-7.4 0-1.2 0-3.8-.5-2-.4-4.2.2a1.8.7 25.8 0 1-.9 0q-.8-.3-1.3.6.2-2 .8-3.1 1.3-2.1-.7-2.3a1 1-59.6 0 0-1 .3q-1.9 1.5-2.6 3.9-.5 1.7-1.7 3v-.5a1.5.8-43.3 0 1 .3-.9q1-1.4-.8-2-3.2-1-6.6 1.4l-1 .2q-1.3-.2-2.7 0-1.7 0-3.1-.3-4.9-1-9.9-.6-5.3-.7-10.6-1.7-1.7 0-3.2-.8a1.9 1.3 49.4 0 0-1-.3q-2.3.2-5.4 1.3-3.7 1.2-8.8.7-4.6.2-9.2-.2-3.4-1-6.9-1.4-2-.2-3.7-1l-3.6-1.5q-.9-.4-3.4-.7-1.8-.2-3.3-1.2-.5-.3-.8-.3-.4.1-.8.6.8-2.4 1.3-3 3.6-4.1 5.8-9.7 1.1-2.8-1.6-1.5-4.4 2.1-6.1 6.8-1 2.8-4.7 9.4l-.4-.9a1 .7 51.7 0 1 0-.8q.8-1.5-1-2.2-3.5-1.2-7.6-3.8l-3.3-1.7q-1.8-.8-3.2-2.1l-3.7-3.3q-6-4.1-11.5-9-1.4-1.4-2.9-2.2-4.3-2.5-9.2-3.8-7.6-2.8-15.4-5-1.2-.4-3.2-1.6-1.6-1-3.5-1.2l-2.6-.7q-2-.4-3.7.5-4-4.2-4.8-7.5-.7-3-3.9-5.6-.6-.6-1-1.3L49.3 372l-.6-.7-1.9-1.8a1.1.7-71.5 0 1-.2-.9q.3-2.8-1.4-5l-2.7-4.3a1.8 1.6-65.1 0 1-.3-.9q0-3.3-2.1-7.6-1.8-3.8-5.4-16.6-.3-3.6-1.7-6.8-1.7-3.7-1.3-7.7-1.1-5.3-1.9-10.7v-4.4q0-2.3-1.2-4.5v-.8q.5-.8.7-1.6.2-.7 0-1.7-1-4.4-.4-9 .2-1.1 0-2.3-.4-1.5-.3-2.3.8-15.7 2.6-25.6l.5-3.2q.2-2.6.4-3.3l1.6-5q.5-5.5 3-13 4-11.5 9-22.8 1.9-5.9 5-11.2l1.7-4.1q.7-1.5 2.5-3.6 2.7-3.4 3.2-7.8l.6-.5q1.6-.2 2.3-1.8.5-1.4 2-1.9-.4 2.9-2.4 5a1.2.7-34.9 0 0-.4.8l.3 2.2q-3.4 1.9-4.2 5.7-1.4 1.8-1 4l-2.2 3.2a1.4 1.2-33.7 0 0-.2 1q.3 2-1.3 4.4-1.4 2.1-4.6 11.4-1.9 2.7-2 6l-2.7 9.3q-.8 2.5-.5 5a.4.3 78.1 0 0 .4.4q.2 0 .3-.4 1.7-10.3 5.7-20 2.9-5.5 4.8-11.3.6-2 2.1-4.7 1.4-2.4 2.1-5.2l1.3-2.5q2-3 2.7-6.6 3.7-4.7 6-10.2.7.6 1 1.5 1.8 5.7 5.4 10.3l2.2 2q1.2 1 1.4 2.7.1 1.6 1.3 1.4l.3-.7q-.8-3.6-3-6.5-1.3-4.5-3.3-8.7-1-5.2-3-8.2-2.7-3.8-2.8-7.5 0-1-2.7-10.4-1.6-5.6-2-10.5-.6-5.8-.8-12a1 1 2.3 0 0-1-1.1q-1.7-.2-1.6-1a.4.3 18.6 0 1 .6-.3q2.4 1.2 2.1-1.7.4-2.4.5-4.8 1-.8 1-2.2 1.4-11.2 2-13.3 2.6-10 5.2-14.7 5.4-10 9.2-15.6 1.8-3 4.8-5.8 2.4-2.3 6-4 4.9-2.3 9.3-3.8 1.5-.6 3.1-.3 3 .4 4.5-.2a1.5 1.1-43.1 0 1 .9-.1m-20.6 75.8q.2 3.8.6 5.4 1.8 7 2.1 14.3.1 1.3.7 3 .5 1.5.6 3-2.3.6-3.2-.6-.4-.6-1-2.7-1-4.2.6-9.7a1.5 1.5 16.2 0 0-1-1.8q-.9-.2-1.7-1a1.7 1-83.9 0 1-.5-.9q-.2-1.3-1.3-2.2a1 1 44.8 0 1 0-1.4q4-3.6-.2-2-.7.2-1 .7-.6.9 0 1.8a1.6 1 36.1 0 1 .3.8q0 2.7 1.1 5a1 .8-6.3 0 0 .8.5q1.8.3 2 2a.4.4-2.6 0 1-.4.5l-1.5-.1a.4.4-4.1 0 0-.4.4l2.5 9.3v1q-.3 1.4.2 2.5l1 2.1q3 9.7 9.1 17.8l.6.8q1.2 1.7 1.6-.4v-1.3q-.3-1 0-1.8 3.8.2 6.5-2.5 1.5 2 3.7 3.4.6.3 1.2.3 1.2-.2.6-1.3-.2-.5-1-1-2.7-1.7-2.8-5.2 4.6-.2 5.5-4.7l2.5 4.8q2.4 4.3 5 .8l.2-1q-.3-2.8-2.4-5-1.2-1.2-1.3-3l7.2-6.8q1.3.3 2.3 2.4 1.2 2.6 5 2.9a.5.5-4.5 0 0 .5-.7q-1-4-3.9-7a1.6 1.2 65.2 0 0-.8-.5q-1 0-2 .6-4.8-3.6.6-5a1 1 84.3 0 1 1.1 1q0 1.2.4 1.7h.8q4.1-3.1 7.2-7.4a1.5 1.4-28.6 0 0 .3-.9q-.1-3.1-1.3-6-1.3-3.3 1.8-3.3l.6.4 1.6 4.6a1 1-31.5 0 0 1.8.4l4.5-4.2q1 5 6 8a.8.8-73.1 0 0 1.3-.6q.2-4.5-2.4-8.7-.8-1.3-1.6-1.7-1.4-.6-2.5 1.7.1-.5-.2-.8-.6-3.1 2-4.2l.7 1.5.8.2q2.5-1.5 4-4.3a1 1-47.9 0 0 0-.9l-7.5-11-11-12.5q-.2-1.7 1.4-2.5 1.7-1-.2-1-1.9-.1-3.3-1.5l-.3-.8q.4-1.2 2.5.4l.9.6q3.8 2.3 5.4 4.6 1.2 3.1 3.7 5.3 1.2 1 2.4 4.5l.5.8q3.9 3 3.7 8.5a.5.5-87.5 0 0 .5.6q4.2.2 2.5 3.8-.4.8 0 1.3l.7.1q2.8-2 .8-5.4-8.7-14.3-19.7-26.9-1.2-1.4-2.3-2.2-1.8-1.5-2.3-2.1l-2.2-2.8q-.6-.8-1.3-1.2l-1.7-.7q-.4-.2-.7-.6-1.5-1.5-5.2-2.6l-1.1-.5q-1.6-1-3.3-1.4-1.5-.4-3.5-.2-9.3.9-15.4 8.6-.7.8-1.6 1.2-4.3 2-7 8-.3.8-1 1.5-3.2 3.7-3 9.7 0 1.7-1.2 2.8-1 1-.4 3.1v1q-.7 2.7 1.6 1.8l.4-.7q-.4-2.6 1.2-1.6a1.1 1 11.3 0 1 .6.7q.2 1.3-1 1.9a2 1-9.8 0 0-.7.6l-1.8 2.7q-1 1.7-.7 3 .4 1.8 1.9 3a1.2 1-27.8 0 0 .9.2q2.2-.4 1.5 1.4-.4 1-1.7.7l-.7.3q-1.7 2.8 2 2.7zm149.5-43.2q-2.2-2.3-5-1.3a1 1 68.4 0 0-.6 1.4q3.2 7.8 8.8 13.7l1.9 2.5q1.3 1.8 4 1.4a.8.8 68 0 0 .5-1.3q-1.7-2.5-2.3-5.2-.5-2-1.5-3-.5-.4-.6-.8-2-4.1-5.2-7.4m63.4 11.3a2 2 54.1 0 0-.3 1.7q1.7 6.4 4.4 12.7.5 4 2 7.8a1 1 79.1 0 0 .7.6q2.3 0 3.2-2a1 .8 42.8 0 0-.2-.8q-1.2-2-.9-4.3l-3.1-14.3q-.5-2.2-1.6-3-2.1-1.7-4.2 1.6m-103.2-1a1 1 35.4 0 0-1 0l-1.5 3.2a1.1.7 48.5 0 0 .1.9q4.5 7.5 7 9.6 2.1 2 4.7 3.3 3.5 1.8 2-1.5-1.1-2.6-2.8-4.8l-3.3-4.5q-2.3-3.4-5.2-6.3m71.8 14.2-.3-.1a.4.3-85.6 0 0-.4.5q.8 7 4.8 12.7 1 2.2 2.3 4.1l1 2.1q.5 1.2 1.7 1.8 1.3.8 1.2-.7-.2-3.2-2.4-5.8-.6-.7-.8-1.6-.6-3-1.5-5.2l-2.1-2.8q-1.3-1.7-1-4a1 .7-74.5 0 0-.3-.9q-.7-.5-1.6 0a.8.4 32.8 0 1-.6 0m-27.5 14.4q-1.2-.8-2-2.1-2.9-5.6-7.5-2a1 1-46.7 0 0 0 1.8q2.4 1.6 2.8 4.3a1.6 1.5-73.3 0 0 .4.9q5.5 5.9 12 10.7 1.3 1 1-.6-.6-4.1-5.5-8.5a3 3-59.7 0 1-.7-2.7q.4-1.2-.5-1.8m152.3 15q-6 10.2 1.3 17.6 2.1 2.3 4.7 2.5 3.4.4 5.6-1.9t2.3-6.8q.3-9-7-14.8l-.9-.3q-4 .2-6 3.7m-256.3 4.6q2 3 5.3 1.9a1 1-22.8 0 0 .5-1.2l-3.6-7.2-.7-.5q-2.9.2-2.4 3.4.3 2.8.9 3.6M221 163q-4.4-4.7-8.6-10.4a1 1 50.3 0 0-1.4-.3l-2.3 2.2a1 .6 61.7 0 0 0 .9q1 2.7 4.1 6.3 5.1 5.7 9.4 8.4a1.5 1.3 54.3 0 0 1 .2q2-.2 2.1-1.8 0-1-1.1-2.3-1.5-1.7-3.2-3.2m-32.3 14.8-7.4-6-2.6-1.7q-2-1.3-3.2-3.6-4.2-5-5.5.8a1 1-64.3 0 0 .3.9q.7.7 1.7 1a1.3 1.2-3.9 0 1 .7.5q2 3.5 5.7 4.8a1.5 1.4-6.4 0 1 .8.5q3.6 5.5 10.3 5.8a1 1-11.8 0 0 .8-1.3q-.6-1.2-1.6-1.7m-12 28.8a1 1-70.6 0 1-.5-1.2q.4-3-4.2-4.3-1.6-.4-3 .2-3.6 1.5-7 4-1 .9-1 2.7t-.2 2.7q-1.9 8.6 3.8 15.3a1.6 1.4-10.5 0 0 .8.5l6.4 1.4a1 1 34 0 0 1-.1q3.4-2.2 5.6-5.7 1.8-3 1-6.5-1-4.1-.7-5.5.4-2-2-3.5m2 64.6q2.5-.2.6-2.2-3.6-3.8-8-6.7l-.6-.7q-.8-1.4-3-2.3-7.1-3.2-14.1-3.1-3.2 0-10 .6-4.9.5-9.7 2-4.4 1.3-7 5-6.9 4.7-8.6 7.5-5.8 9.6-7.4 20.8-.4 3-.4 4.6 0 3 1 5.7v1q-.5 2.8.5 5.6 0 .3 5.7 7.5 3.4 4.4 6.5 6.7 4.2 3.3 8.3 4.8 5.7 2.3 11.9 1.9 2.9.4 5.3-.9.4-.2.9-.2 7.6 0 14.8-2.1 3.2-1 6.3-3.3 6.4-4.8 7.1-5.9 1.6-2.5 3.4-4.8 2.3-3 2.2-6.8a2 1.7 62.8 0 1 .3-1q3-5.3 3.4-11.5a1.6 1.3 32.6 0 0-.3-1q-1.5-2 0-4.2a1.3 1.1-37.5 0 0 .2-1q-1.4-6.9-4.7-13.2-.4-.9-.9-1.3-1.1-.9-1.8.4a1.8 1 66.3 0 0-.1 1q.3 2-.9.7l-.6-.6q-1.3-1-1-2.6zm51.9 77.3a4 4-46.2 0 1-2.2.1q-2-.5-2.3 1.2-2.6 5.4-4.3 11-.8 2.6-2.6 4.6-1 2 .6 2 .7 0 1.4-.6 3-2.2 4-6 .5-2 6-10.7 1.4-2.2-.6-1.6m-51.2 19.9q-1.8.5-2.6 2.6-.7 2.3 1.1 3a1 1-56.2 0 0 .9-.2q3.2-3.3 4.2-7.8l.5-.7q1.3-1 1.5-1.6.9-3.9 3.7-6.6 1-1-.4-1-5.3-.4-7.2 4.8-1.4 2.6-2 5.5a1.2.9 41.7 0 0 .1.8l.4.6a.4.4-23 0 1-.2.6m-48 1.6q-7.6 8.6-11.8 17.7a1.2.8-52.6 0 0 0 .9q.3.6 1 0 2.8-4.2 6-8 1.5-2 3-4.8 1.4-2.6 3.1-4.9.6-1.2-.3-1.2a1 1 22 0 0-1 .3M237 407.6q-2 .8-2.6 3.8-.4 2 1.2.7 5.7-4.6 8.7-12 2.2-5.3 5-10.6a.4.4 23.5 0 0-.3-.6q-1.5-.5-2.6-.3-1 0-2 1.4-4.5 6.9-7.7 14.5a1 1 46.5 0 0 0 1l.6 1.5zm38.3 5q-1 .6-1.2 1.1-1 1.6.8 1.2 2.2-.6 3.5-2 .7-.7 2.3-3.2 1.4-2.1 2.2-4.5l1.7-4.7q1.3-3.2 2.2-6.2.6-2.4-1.5-1.2-2.7 1.4-3.6 4.3-1.6 2.6-2.4 5.4-2.6 4.3-3.5 9.1a1 1-11.4 0 1-.6.8m-79.7-11.4q-2.5 0-4.6 2-1.4 1.5-5.1 9.9-1.3 2.9-1 4.6.3 2 2.1 1 2.9-1.4 2.4-3.5a1.7 1.1 59.5 0 1 0-1q1.6-3.7 4.4-6.6 2-2 3-4.8a1.2 1.2 10.2 0 0-1.2-1.6"/><path fill="#b8b599" d="M123.8 63.3q1.5 0 2.7 1.2l-2.7-.3z"/><path fill="#443e38" d="M312.5 76.7h.3q.6 1.6-.6 3l-19.8-4.6q-10.1-1-20.1-2.6-5.7.2-10.4-.7-2-.4-3.5.4a1.3 1-47.6 0 1-.9.2q-5.3-1.5-10.7-1l-12 1.3q-5.7-.6-11.3.8-11.3 1.6-22.5 3.5-1.8.3-13.5 4a1.2 1-80.8 0 0-.6.5q-.5 1-1.5 1.4-.5.1-1.8-.2-1.3-.5-2.8.1-10 4-20 7.5l-.8-.2-1.5-2.8q35.9-15.7 75-17.7l3.2-1q1.5-.3 3.2-.4 37-1.6 72.6 8.5"/><path fill="#2c2925" d="M319.5 69.8q.6 1.2 1.8.7a1.6 1-37 0 1 1-.1q4.3 1.1 7.4 4.6l-4 10.2a1 1-56.4 0 1-1.4.3q-3-3.1-8-4-2-1-4-1.7 1.1-1.5.4-3 1.7-.2 2.6.7 1.2 1.2 1.5-.4.8-3.9 2.7-7.3"/><path fill="#af6c54" d="M336.7 75q.4 1.4 1.7 1.4h1.7q10.6 1.8 15.8 4.4 9.8 4.9 31.7 18.9l2.1 2.6a.8.6 58.5 0 0 .8.4l1-.5q0 .5-.3.8-.5 1.5.3 3-2.6 2-3.2 5.3-.5 1.4-.3 3.3.3 2-1.3.7-25-20.7-54.7-32a.5.3 11.3 0 1-.3-.3v-.2zm42.8 26.5a.9.7 74.3 0 0 .4-1 .9.7 74.3 0 0-1-.6.9.7 74.3 0 0-.4 1 .9.7 74.3 0 0 1 .6m3.6 1.3q-1 1.5.7 1.1a1.5 1.4 12.1 0 0 .8-.5q1-1.3-.7-1z"/><path fill="#3b3732" d="m230.6 77.3 1.3 1.3a1 .8-23.6 0 0 .9.3q6-1.2 12-.4-1.7-.3-3 .5-6.8.5-13.5 2-17.7 2.7-18.8 2.5-1.3-.2-.8.5-2.8-.4-1.7.7-4.4-.4-8.2 1.6-5.7 1-11.6 1h-.2q5.6-2.6 12.5-4 3.7-.8 7-3.2a1 1 43.5 0 1 .9 0q.9.5 2 .7 5.3-.8 10.8-1a1.1.9-69.3 0 0 .8-.5q.8-1.2 2.2-.9a1.7 1 65.7 0 1 .8.5q1.8 2.2 3.3-.4 1-1.7 2.5-1.6a1.5.8 56.6 0 1 .8.4"/><path fill="#443e38" d="M263.6 78.7q14-.6 27.4 3l-11-.4q-1 0-4-.7-2-.5-4.2.2L258 79.5l-5.2-1v-.2q5.4-1.2 10.8.4"/><path fill="#97826f" d="M252.8 78.3v.2l-11 .5q1.3-.8 3-.5 4-.6 8-.2"/><path fill="#faf3df" d="m252.8 78.5 5.2 1q.7.8 1.2.8 2 .2 0 .9h-5.4l-7-.6-1 .1q-1 .5-2.2.7-3-.3-5.8.3-4.5 1-5.7 1-17.8 1.7-35.1 6.5-13.5 1.8-20.5 4.5-3.2 1.3-2.8-2.5l2-.5 5.8-1.3h1q3.6 1.1 4.8-2.1 5.8 0 11.5-1 3.8-2 8.2-1.6 1.1 0 1.7-.7-.5-.7.8-.5 1.1.2 18.8-2.4 6.7-1.6 13.4-2.1z"/><path fill="#b8b599" d="m258 79.5 13.8 1.3q1.2 0 1.4 1.2-9.7.1-19.4-.7l5.4-.1q2-.7 0-.9-.5 0-1.2-.8"/><ellipse fill="#25211c" rx="1.5" ry="1" transform="rotate(72.6 19.2 142)"/><path fill="#83786e" d="M280 81.4q5.5 0 11 .3l5 1q1.3.8 2.8.7 1 0 .1.8-.5.5-3.2.2L273.3 82q-.3-1.2-1.6-1.2 2.3-.7 4.4-.2z"/><path fill="#b8b599" d="m70.7 81.5-.1 1.5a1.5 1.3-61.3 0 0 .2 1q1.8 2.8-2.5 2.3z"/><path fill="#312f2a" d="M331.7 82.8v.2a.5.3 11.3 0 0 .3.3q29.7 11.3 54.7 32 1.6 1.2 1.3-.7-.2-1.9.3-3.3h3.4l-.3 1.3q-.1.5-.4.9-.8 1.2.4 1.6a1 1 33.3 0 0 1-.2l5.4-4a1.4 1.2-41.2 0 1 1.6-.1q2.6 2.4 6 3.2l-2 7.3q-.2 3.2-2.6 6.4h-.4q-2.3-2-4.8-3.8l-2.4-1.5q-2-1.2-2.8-3.1-.7-1.6-2.6-2.3l-5-1.8a1.6.9 73 0 1-.7-.7q-1-1.6-2.5-2.3-6-5.3-13.2-8.9-5.3-2.5-10.5-5.6-6.6-3.9-13.6-7-5-1.7-9.9-3.7-1.5-.7-1.9-1.5-.6-1.4 1.2-2.7"/><path fill="#090706" d="M115.2 84.3q1.7.5 3.3 1.4l1 .5q3.8 1 5.3 2.6.3.4.7.5l1.7.8q.7.4 1.2 1.2l2.3 2.8q.5.6 2.3 2l2.3 2.3q11 12.6 19.7 26.9 2 3.4-.8 5.4a.5.5-32.8 0 1-.8 0q-.3-.6.1-1.4 1.7-3.6-2.5-3.8l-.5-.5q.2-5.5-3.7-8.6l-.5-.8q-1.2-3.6-2.4-4.5-2.5-2.2-3.7-5.3-1.6-2.2-5.4-4.6l-.9-.6q-2-1.6-2.5-.4l.3.8q1.4 1.4 3.3 1.5 1.9 0 .2 1-1.6.8-1.5 2.5-1.9-1-2.5-2-6-9.5-17-11.4-.7 0-1.8-.5-1-.5-1.9-.3-1.5.2-2.6-.3a1.1.9 39.6 0 0-.9 0q-4.8 2.5-9.3 5.7-2.7 1.9-4.4 4.6-3 5-5.3 10.7-.7 1.8-.5 3.6.2 1.2-.7 2.3a.8.7-39.2 0 0 0 .8q1 1.9.5 4 0 3.7-.7 7.3v1q.9 2.4.6 5l-1.6.2q-3.7.1-2-2.7l.7-.3q1.3.4 1.7-.7.7-1.8-1.5-1.4a1.2 1-27.8 0 1-.9-.2q-1.5-1.2-2-3-.2-1.3.8-3l1.8-2.7a2 1-9.8 0 1 .8-.6q1.1-.6.9-1.9a1.1 1 11.3 0 0-.6-.7q-1.6-1-1.2 1.6l-.4.7q-2.3.9-1.6-1.8v-1q-.5-2.1.5-3 1.2-1.2 1.1-3-.2-5.9 3-9.6.7-.7 1-1.6 2.7-6 7-7.9 1-.4 1.6-1.2 6.1-7.7 15.4-8.6 2-.2 3.5.2M130.4 96l-5-3.7q-2.2-1.7-1.8.6.3 2 1.9 2.4l1.5.5q1.7.8 3 1 2 .4.4-.8"/><path fill="#83786e" d="M208.7 84q-.6.8-1.7.7-1.1-1.1 1.7-.7"/><path fill="#716257" d="M187 87.2h.3q-1.2 3.3-4.8 2.2h-1l-5.7 1.3q5.2-3 11.2-3.5"/><path fill="#cc836f" d="M108 91.5q1 .5 2.5.3.8-.2 1.9.3t1.8.5q11 1.9 17 11.5.6 1 2.5 1.9l11 12.5q-.8 1.2-2 2-1.9 1-2.5 1.5-16.5 15-18.3 16.4-14.7 12.5-28.3 26.2-.6.3-1.3.2l-1-2.6q-.2-1.5-.7-3-.6-1.7-.7-3-.4-7.2-2-14.3-.5-1.6-.7-5.4.3-2.6-.5-5-.2-.5-.1-1 .7-3.6.7-7.2.4-2.2-.6-4.1a.8.7-39.2 0 1 .1-.8q1-1 .8-2.3-.3-1.8.4-3.6 2.2-5.8 5.3-10.7 1.7-2.7 4.4-4.6 4.5-3.2 9.3-5.7a1.1.9 39.6 0 1 1 0m-7 26.9a1 1 0 0 0-.7-.7 1 1 0 0 0-.8.7 1 1 0 0 0 .8.7 1 1 0 0 0 .7-.7"/><path fill="#faf3df" d="M172.7 91.5q.9 2.7-1.2 3.8-1.9.9-5.7 1.5-2.8-1.5.4-2.4 3.1-1.7 6.5-2.9"/><path fill="#6e6053" d="M236.7 93.3q3.2 3.3 5.2 7.4.1.4.6.8 1 1 1.5 3 .6 2.7 2.3 5.2a.8.8 68 0 1-.6 1.3q-2.6.4-4-1.4L240 107q-5.7-6-8.9-13.7a1 1 68.4 0 1 .6-1.4q2.8-1 5 1.3"/><path fill="#403222" d="m125.4 92.3 5 3.7q1.6 1.2-.4.8-1.3-.2-3-1l-1.5-.5q-1.6-.5-2-2.4-.3-2.3 2-.6"/><path fill="#89634b" d="M394.3 93q1.4 0 1.5 1.3a1.2 1-25 0 1-.4.8q-1 .8-2.1 1.2-.5-2 1-3.3"/><path fill="#13100e" d="M394.5 100.2q1.3.5 2 .5a.8.8 3.8 0 1 1 1q-1 4-2.8 2.3a1.7.7 82.9 0 1-.5-.8q-.3-1.2-1.6.1-.9.9-1.4-.3.3-.3.3-.7l1-2.5q.7-.7 1.2-.2t.8.6"/><ellipse fill="#9e6950" rx=".8" ry=".7" transform="rotate(74.3 123.1 300.6)"/><path fill="#9e6950" d="M383.8 104q-1.6.3-.7-1.2l.8-.5q1.7-.2.7 1.1a1.5 1.4 12.1 0 1-.8.5"/><path fill="#685b4f" d="m305.9 106 3.1 14.3q-.3 2.4 1 4.3a1 .8 42.8 0 1 0 .9q-.8 2-3 1.9a1 1 79.1 0 1-.8-.6q-1.5-3.7-2-7.8-2.7-6.3-4.4-12.7a2 2 54.1 0 1 .3-1.7q2-3.3 4.2-1.7 1 .9 1.6 3.1m.2 17.7q0 .5.5.3a1.3 1-81 0 0 .7-.6q.8-1.7-1-.1zm-109.2-20.2q3 2.9 5.2 6.3l3.3 4.5q1.7 2.2 2.8 4.8 1.5 3.3-2 1.5-2.6-1.4-4.8-3.3-2.4-2.1-6.9-9.6a1.1.7 48.5 0 1-.1-1l1.5-3a1 1 35.4 0 1 1-.2"/><path fill="#6a5133" d="M391.5 106q2-.3 1.6 1.3a1.6.6-37.2 0 1-.5.8q-.7.7.2 1.6 3.5 3.3-1 1.6h-3.5q.6-3.3 3.2-5.3"/><path fill="#6e6053" d="M269.3 117.9q.8-.5 1.6 0a1 .7-74.5 0 1 .3.8q-.3 2.4 1 4.1l2 2.8q1 2.1 1.6 5.2.2 1 .8 1.6 2.1 2.6 2.4 5.8.1 1.5-1.2.8-1.2-.7-1.7-1.9l-1-2.1q-1.3-2-2.3-4-4-5.8-4.8-12.8a.4.3-85.6 0 1 .4-.5l.3.1a.8.4 32.8 0 0 .6 0"/><circle cx="100.3" cy="118.4" r=".7" fill="#cc836f"/><path fill="#b8b599" d="M62.7 118.3q.1 1.4-1 2.2l.3-2q.3-.3.7-.2"/><path fill="#af6c54" d="m144.8 118.5 7.5 11a1 1-47.9 0 1 0 .9q-1.5 2.8-4 4.3l-.8-.2-.7-1.5q0-1.5-1.3-2a1 1-48.2 0 0-.9 0q-4.5 3 .2 6.2.3.3.2.8-.5.5-.8 1.3l-4.5 4.2a1 1-31.5 0 1-1.8-.4l-1.6-4.6-.6-.4q-3.1 0-1.8 3.2 1.2 3 1.3 6.1a1.5 1.4-28.6 0 1-.3 1q-3 4.2-7.2 7.3h-.8q-.4-.5-.4-1.7a1 1 84.3 0 0-1-1q-5.5 1.4-.7 5l-1 2.3-7.3 6.7q-1.2-1.4-1.5-3-.5-2.8-2.2-4.9a.4.4-47.8 0 0-.6 0q-.5.8-.8 1.7-.2.7-.8 1.6-.9 1.6 1 2l.5.5.4 5.6q-.9 4.5-5.5 4.8-.4-3.2-2.2-5.6l-.8-.2q-1.8 1-.6 3l1.9 6.5q-2.7 2.7-6.5 2.5-2.9-5.3-4.7-11-1.5-2.7-1.8-5.7.7 0 1.3-.2 13.6-13.7 28.3-26.2 1.8-1.4 18.3-16.4l2.4-1.6q1.3-.7 2.2-1.9"/><path fill="#524c41" d="M306.6 124q-.6.2-.5-.3 0-.2.3-.4 1.7-1.6.9 0a1.3 1-81 0 1-.7.7"/><path fill="#716257" d="M239.3 130q.7 1.4 1.9 2.2.9.6.5 1.8a3 3-59.7 0 0 .7 2.7q4.9 4.4 5.5 8.5.3 1.5-1 .6-6.5-4.8-12-10.7a1.6 1.5-73.3 0 1-.4-.9q-.4-2.7-2.8-4.3a1 1-46.7 0 1 0-1.8q4.6-3.6 7.6 2m-2.6 3.6q-1 2 .4 1.2.5-.2.7-.7 1-2.4-.5-1.2-.4.3-.6.7"/><path fill="#050504" d="M145.5 131q1.3.5 1.3 2-2.6 1-2 4.2-4.7-3.1-.2-6.1a1 1-48.2 0 1 1-.1"/><path fill="#605449" d="M237.1 134.8q-1.4.9-.3-1.2.1-.4.5-.7 1.5-1.2.5 1.2-.2.5-.7.7"/><path fill="#090706" d="M149 138q2.7 4.2 2.5 8.7a.8.8-73.1 0 1-1.2.7q-5-3.1-6-8.2.2-.7.7-1.2 1.1-2.3 2.5-1.7.8.4 1.6 1.7m-66 4a1 1 44.8 0 0 0 1.3q1.1 1 1.3 2.2a1.7 1-83.9 0 0 .4.9q1 .8 1.8 1a1.5 1.5 16.2 0 1 1 1.8q-1.7 5.5-.5 9.7.5 2.1 1 2.7.8 1.2 3.1.7l1 2.4q.4 3.1 1.9 5.7 1.8 5.8 4.7 11.1-.3.9 0 1.8v1.3q-.4 2.1-1.6.4l-.6-.8q-6.2-8-9-17.7l-1-2.2q-.6-1.1-.3-2.5v-1l-2.5-9.3a.4.4-4.1 0 1 .4-.4h1.5a.4.4-2.6 0 0 .4-.4q-.2-1.7-2-2a1 .8-6.3 0 1-.8-.4q-1.1-2.4-1-5a1.6 1 36.1 0 0-.4-1q-.6-.8 0-1.7.3-.5 1-.8 4.1-1.5.2 2.1"/><path fill="#050504" d="M400.4 143.8q7.3 5.9 7 14.8-.1 4.5-2.3 6.8t-5.6 2q-2.6-.3-4.7-2.6-7.2-7.4-1.3-17.6 2-3.5 6-3.7z"/><path fill="#13100e" d="m139.4 145.3 3.6 7.2a1 1-22.8 0 1-.6 1.2q-3.2 1.2-5.2-1.9-.6-.9-1-3.6-.4-3.2 2.5-3.4l.7.4"/><path fill="#090706" d="M319.3 146.7q3 .7 6.2.8 5 .2 9.7 1.8 1.5.5 2.7.3.9 0 1.7-.3 1-.3 1.8-.2 5.3.6 10.4 2.1 4.7 1.4 10 3.3 6.7 2.3 12.6 6 2.5 1 4.1 3 .3.4.8.6 3.1 1.3 6.3 3.6 14.5 10.8 24.3 25.4 3.4 5.2 6.8 12.8 3 6.6 5.8 13.4 1.1 2.9 1.5 6-1.3 2.5-2 .2-.2-.7-.5-1-1.1-1.2-1.4.7a1.3 1 34.5 0 0 .3.9q1.6 1.9 0 3.6a1 .8-33.3 0 0-.3.8q.4 1.4 1.3.5l.6-1q.7-1.5 1.5-.2a1.2.8-59.6 0 1 0 1q-.3 1.1.6 2 .4.3.6.7 3.6 10.2 2.7 20.8l-.8 9.4q-.4 5-1.4 9.6-1.3 6-3.3 12.8t-4.9 12.3q-3 5.6-7.4 13.2-6 10-13.1 17.3-5.5 5.8-11 10t-12.6 8.3q-15.4 8.7-29.9 11.6l-15 3a1.7 1.5 45.5 0 1-1 0q-1.4-.6-2.9-.6h-3.3l-5.7-.9q-7.3.5-14.4-1-3.5.4-6.8-.7-7-2.3-13.9-4.8-4.3-1.6-7.2-3.1-3.6-1.9-6.9-4.1-4.9-2.4-9-6l-2-1.4q-1.2-.6-2-1.6-7.9-7.2-14.6-15.4l-2-1.9q-1.5-1.2-1-3a1.6 1.1-58.6 0 0 0-1q-1.8-3.4-6.1-6.7-1.5-1.2.8-.9l2.8 1q.4 0 .1-.3l-7-8q-1-1.5 0-2.8v-.3q-.2-2.3.8-2.4 1-1.2-1.6-1.1a2 2-18.2 0 1-1.7-.9q-.6-.9-2.4-1.1l-.7-1a.7.4-44.7 0 1 .2-.8l1.6-1.7a1.7.7-58.4 0 1 .7-.6q1.4-.4 1.8-1.9l-.4-.7q-1.4-.5-1.6 1.2-.2 1.1-.9 1a1.3.7 74 0 1-.7-.7q-.5-1.2-1.3-2l-1.1-.8q-.8-.6-.3-1.8 1.1-1 .4-2.5-1.5-3.3-1.6-7-.1-1.8-1.8-2.6a1.3 1.3 25.3 0 1-.6-1.7q1.4-3-.1-6-1-2-.1-3.9.6-1.2.6-1.7 0-.8-.3-1.5a1.6.6 56.5 0 1-.2-1l.5-2.1a2 1-62.5 0 0 0-1q-1-2.7 1-5l.3-.8q-.3-1.6-1-3-.5-1.5.7-1.2.4.1.8.6l1.9 2.7a1 1 69.9 0 0 .8.4h1.6q.2 2.9-.6 5.5a1.6 1.2-15.8 0 1-.6.7q-1.2.9 0 1.7a1.2.7 22.8 0 1 .5.7l.8 7.6q0 .6-.6.2-1.9-1.2-3.5-.6t.2.8q4.4 0 4.1 3.7l-.2 3q.2 2.4 1 4.6 1.2 2.8 1.6 8l.2 1q8.8 30.7 31.3 51 12 10.6 26.8 16.3 4.4 1.7 8.5 3.7 5.1.8 10 2.9.3.2.9.1 2.2-.2 6.1.4 8.6 1.4 19-.4h1q1.3.4 2.5.1l2.2-.6q30.3-4.6 52.4-24.5 33-29.8 34.7-75.4 0-.7.5-3.4.2-1.7-.1-3.5-.5-2.4-.6-4.7l-.2-1.4q-.8-3.5-.2-5a1.8 1-50.8 0 0 .2-1q-3-14.8-9-28.6-2.4-3.4-4-7.4l.3-.7 3.7-1.8a1.5.6-17.1 0 0 .7-.6q.5-1.1-1.3-.8t-3.4 1.3a1.5 1-29.5 0 1-1.8-.2q-8.8-14.7-21.9-25.6-5.8-4.9-9.2-7.2-4.9-3.4-10.4-5.6-5-2.4-10.6-3.7l-9-2.6q-5.3-2.1-10.7-2.2-1.7 0-3.2-.3l-3.1-.6q-4-.3-8 .7-3.2.8-2.1-2.7.7-2.4 3.2-1.9M218.2 251.1a1.7 1.5 32 0 0-.6-2.2 1.7 1.5 32 0 0-2.2.4 1.7 1.5 32 0 0 .6 2.2 1.7 1.5 32 0 0 2.2-.4m204 6.7a2.2 1 106.8 0 0 1.6-1.8 2.2 1 106.8 0 0-.2-2.3 2.2 1 106.8 0 0-1.6 1.8 2.2 1 106.8 0 0 .3 2.3m-204.9-3.3q-4.1.4-.3 2.6a1 1 45.7 0 0 .9 0q2-1 .3-2.4zm204.6 8.8a2.2 1 129.4 0 0 2.1-1 2.2 1 129.4 0 0 .6-2.3 2.2 1 129.4 0 0-2.1 1 2.2 1 129.4 0 0-.6 2.3M219.3 275a1 .7 56.9 0 0 0-1.1 1 .7 56.9 0 0-1-.4 1 .7 56.9 0 0-.1 1.1 1 .7 56.9 0 0 1 .4m.5 4.2a1 1 7 0 0 .9 1.1q1.7.2.4-2.1-.9-1.6-1.3 1m9.4 23.4q-1-3.5-.8 0l.4.5q.6.2.4-.5"/><path fill="#13100e" d="M311.8 146.7q.6-.2.5.4l-1 3.5a1 .7 1.4 0 1-.8.4q-2 .3-5.2 1.5-2.3.9-6.4.7-4.9 1.5-10 2.7a1.5 1-68.3 0 0-.6.5q-.7 1-2.2 1.2-3.4.5-6.8 3.5l-.9.3q-3.2-.2-5.6 1.3a2.6 2.5-57.4 0 1-1.7.4q-3.6-.5-3.6 2.4 0 2.4-2.4 4.4a1.3 1.1 23.6 0 1-1 .2q-3.5-.2-3 3.7l-.9.7q-4.5.7-6.7 4.8-8.7 7.2-14.3 17.2l-4 5q-1.2.8-.7 2-7 12.6-9.5 26.8-2.6 6.5-3.8 13.4-1.8-.1-1.9-1.8-.2-3.5 1.5-8a.9.6-63 0 0-.1-.8q-.3-.2-.7-.2a1 1 4 0 0-.7.6l-1.5 6a1.5.3-80.4 0 1-.4.9q-1 1-.9-1.4-.6-3.3.4-6.4 1.3-3.8 1.7-7.8 1-2.1 3-3.3 1.4-.8-.7-1a.7.7 12.7 0 1-.6-1q3.4-9.2 8.6-17.7a.4.4 37.9 0 1 .6 0q1.6 1.8 3 2.2 2 .5.5-1.2-3.1-3.7-.8-7l2.1-3q4.5-7.9 11.3-14a.8.7-44.1 0 1 1 0q1.4 1.3 2.4.2 1.9-2.2 1-3-1-.9-.1-1.6l.5-.5q3-3 5.2-4.3 1-.6 1.5.4a.8.6 70.4 0 0 .7.4q1.3-.1 1.6-1.4a1.4.6 53 0 0-.2-.9q-.4-.8.6-1.5 16.8-11.9 36.2-17 2-.5 7.6-1 4.1-.5 8.2-1.9M229.3 206l-.2.8a1.8 1-24 0 1-.5.8q-1.4 1.1-1.7 2.8a.8.7-66.4 0 0 .2.8q1 .6 1.5-.6l.2-1.4q.2-2 2-2.7a.8.7-15.7 0 0 .4-.7q0-1.8-1.4-.6a2 1-89.8 0 0-.5.8"/><path fill="#6e6053" d="M212.5 152.5q4.2 5.7 8.6 10.4 1.7 1.5 3.2 3.2 1.1 1.2 1.1 2.3 0 1.6-2.2 1.8a1.5 1.3 54.3 0 1-.9-.2q-4.3-2.7-9.4-8.4-3.1-3.6-4.2-6.3a1 .6 61.7 0 1 .1-1l2.3-2a1 1 50.3 0 1 1.4.2"/><path fill="#faf3df" d="M331 152.8q7.5 1 12.3 1l9 2.5q0 .7-.6 1.2-13.3-1.7-26.7-1.7l-1.8-.8a1.3 1.2 48.6 0 0-1-.1q-5 1.5-10.2 1.6l-17.5 4q-21.4 7.6-38.8 22.2-4.6 3-7.9 7.4-3.5 5.6-7.6 11-2.2 0-1.7-2.1.7-1.2.7-2.5 5.6-10 14.3-17.2l6.8-4.8q.4-.2.7-.7 3-1.7 6-3.1 3.5-3.6 8-5.9 10-3.7 19.8-8 4-.4 7.7-1.5 14.4-4.5 28.5-2.6"/><path fill="#716257" d="m323.2 155 1.8.8q13.4 0 26.7 1.7 4.5 1.7 9.2 2.8 1.2.7 1.9-.3 5.5 2.2 10.4 5.6 3.4 2.3 9.2 7.2 13 11 22 25.6a1.5 1-29.5 0 0 1.7.2q1.6-1 3.4-1.3t1.3.8a1.5.6-17.1 0 1-.7.6l-3.7 1.8-.2.7q1.5 4 4 7.4 6 13.8 8.9 28.6a1.8 1-50.8 0 1-.2 1q-.6 1.5.2 5l.2 1.4q0 2.3.6 4.7.3 1.8 0 3.4l-.4 3.6q-1.7 45.5-34.7 75.3-22 20-52.4 24.5l-2.2.6q-1.2.4-2.5 0-.5-.2-1-.1-10.4 1.8-19 .4-3.9-.6-6.1-.4l-1-.1q-4.8-2-10-3-4-2-8.4-3.6-14.9-5.7-26.8-16.3-22.6-20.3-31.3-51l-.2-1q-.4-5.2-1.5-8-1-2.2-1.1-4.6l.2-3q.3-3.7-4.1-3.7-1.8 0-.2-.8 1.6-.6 3.5.6.6.4.6-.2l-.8-7.6a1.2.7 22.8 0 0-.5-.7q-1.2-.8 0-1.7a1.6 1.2-15.8 0 0 .6-.7q.8-2.6.6-5.4v-2q1.2-7 3.8-13.6 0 1.2.7.7l.4-.6q3.8-8.8 7.4-17.8 3.8-5.4 6.8-11.5 4-5.3 7.5-11 3.3-4.3 7.9-7.3 17.4-14.6 38.8-22.2l17.5-4q5.3-.1 10.3-1.6a1.3 1.2 48.6 0 1 .9 0m-7.4 89.3q0 .7-.6 1.2-1 1.3-.4 2.8l.2 1q0 4.7 2.2 9a.3.3 73.8 0 1-.3.4q-8.7.9-9.1.8-3.2-.5-6 .8h-.6q-2.7-1.4-5.6-1-2.4.3-3.7 0-5-.9-10-1.3-.5 0-1-.4-2.4-1.6-5.1-.6l-5 .3q-4 .4-7 2.7l-2.9 2.2q-1.4 1.3-2.2 3-1.2 2.5-2.7 4.8-1.6 2.4-1.6 5.2 0 2 .6 5.2.7 3.5 3 6.4l.3.4q.3 1.7 1.9 2.4 3 2.7 6.4 4.6a1 .7 39.1 0 0 1 0l.3-.5a1 .6-73.5 0 1 .6-.5q.7 0 .3.6-1.6 2.6 1 3.2 8.5 2.2 17.2 3l.6.5q.7 2.5-1 4.3a1.5 1.2-27.1 0 0-.4.9q-.2 7.2.3 16 .6 9 3.5 16.8 1.3 3.1 3.8 4.7 8 4.8 16.5 1.4 2.8-1.1 3.5-1.6 1.8-1.2 2.2-3.5.1-1 .8-1.8 1-1 1.2-1.5 3.2-7.1 2-15 1.1-8.5-.6-17a1.3.7 88.8 0 0-.5-.8q-.6-.3-.9.9-.2 1-1 1l-.7-.5q-.2-1.4 1-2.3a1.5 1-22.8 0 0 .5-.8q.4-2-1.8-1.7-.8.1-1-.2a.6.4-20.4 0 1 .5-.6q4-1.4 8.3-1.8 1.7-.2 4-1.1 2.8-1.1 6-.8l4.4-1 3-.7-3 2.2a3.4 1.2-27.8 0 0-1.5 1.5q-1.1 3 1 1.7 2.9-1.7 6-2.9l6-2.4q10-4.8 18.8-11.4l.3-.8q-.4-1-1.6.2-1.7 1.9-4.4 2.3l2.2-3q.7-1 2.7-2.3 1.6-1 2.6-2.8 5.4-5.7 9.4-12.4 1.2-4.5 2.7-8.8.4-1 0-1.4-.4-.6-1.6-.5-1.3.2-.2-.5.8-.6 1.4-.3a.6.4 25.6 0 0 .7-.2q1.7-3 .3-6.4-.6-1.5-3-5.2-2.9-4.6-7.7-4l-1-.2q-1-.7-2-.4-9 2-17 8.6-.8.7-1.9 1-5.3 1.7-10.7 4.8-6.7 2.4-13 5.5l-2.1 1.5q-1.3 1-3.1.5-1.5-1.6-1.5-4 .7-2.4-1-4.2V245q-.5-11.5-3.4-22.6-.2-1.8-3-2.8-.6-.2 0-.4l9.6-2.5q3.3-.8 10.1-5.6 5-3.5 6-10 1-5.6-2.3-8.5-1.6-1.4-7-3.5-3.2-1.3-6.6-2-3.2-.7-6.8-.2-16.3 2.4-28.3 11.7-5.2 4-5.8 11-.1 2.6 1.3 4.4 1.9 2.2 4.6 3.4 4 1.7 8.4 2l3.7.7q2 .3 4-.3 1.1-.5 7.3.1l.5.6q.6 6.4 2 12.7.3 1.7.3 4.7 0 2.4.6 4.8a1.5.7 27.6 0 0 .6.7zm18.5 53.9-3.2-.5q-1.5-.2-3.2.2-3.5.9-7.1 1.1-3 .6-1.5 2.8a1 1-15.2 0 0 .8.4q5.4 0 10.6-1.2 2.5.3 4.1-1.4 1-1.2-.5-1.4"/><path fill="#b8b599" d="M352.3 156.3q5.4 1.3 10.4 3.7-.6 1-1.8.3-4.7-1.1-9.2-2.8.6-.5.6-1.2"/><path fill="#13100e" d="M127.6 157.9q3 3 3.9 7a.5.5-4.5 0 1-.6.7q-3.7-.3-4.9-2.8-1-2.2-2.3-2.6l1-2.2q1-.7 2-.6a1.6 1.2 65.2 0 1 1 .5m-14.9 1.2q1.7 2 2.2 4.9.3 1.6 1.5 3 .1 1.8 1.3 3.2 2 2 2.4 5l-.3.9q-2.5 3.5-4.9-.8l-2.5-4.8-.4-5.6-.4-.5q-2-.4-1-2l.7-1.6q.3-.9.8-1.7a.4.4-47.8 0 1 .6 0"/><path fill="#6e6053" d="M175.6 166.4q1.2 2.3 3.2 3.6l2.6 1.8 7.4 5.9q1 .5 1.6 1.7a1 1-11.8 0 1-.8 1.3q-6.7-.2-10.3-5.8a1.5 1.4-6.4 0 0-.8-.6q-3.8-1.2-5.7-4.7a1.3 1.2-3.9 0 0-.7-.5q-1-.3-1.7-1l-.3-.8q1.3-6 5.5-.9"/><path fill="#312f2a" d="m64.1 165 1.6 2.6a1.1 1-21.1 0 1-.7 1.6l-3 .6-.6-.3q-.4-1.2-.2-2.5l1-2.2 1.2-.2a.9.6 66.6 0 1 .7.4"/><path fill="#13100e" d="M104.8 169.7q1.8 2.4 2.2 5.6 0 3.4 2.8 5.2.8.4 1 .9.6 1.1-.6 1.3-.6 0-1.2-.3-2.2-1.3-3.7-3.4l-1.9-6.4q-1.2-2.2.6-3h.8"/><path fill="#aba085" d="M67.3 176q-2.4 5.5-6 10.3l-.8.2-.3-2.2a1.2.7-34.9 0 1 .4-.9q2-2 2.4-4.9 1.5-1.5 2.8-3.2 1.7-2.3 1.5.7"/><path fill="#605449" d="m260.3 174.5-6.8 4.8q2.2-4.1 6.8-4.8"/><path fill="#af6c54" d="M483.5 189q-1.5-.2-2.7-1.1-4.3-3.3-9.5-4.9a.8.6 71.7 0 1-.4-.2l-.1-.2a1.1.9-13.4 0 0-.7-.4l-5.6-.2q11.8-2.1 19 7"/><path fill="#fef9e9" d="m464.5 182 5.6.2a1.1.9-13.4 0 1 .7.4l.1.2a.8.6 71.7 0 0 .4.2q5.2 1.6 9.5 4.9 1.2.9 2.7 1 .3.2.3.6l-.4 1.2-.5.4q-2.4-.3-5.2-2.3-3.9-2.8-11.2-4-2.7-.5-5 .9-1 .5-3.5.3l-2.2 1q-6.2 3-10.4 9.4-1.1 1.8-3.7 3.7h-.8q-1.4-1-1.1-2.8 1.3-1 2.2-2.5l3.9-3.1q.6-.6.8-1.2t0-1.5q7.3-7.2 17.8-7"/><path fill="#c9826f" d="M466.5 184.8q7.3 1.2 11.2 4 2.8 2 5.2 2.3l.5-.4q0-.6.4-1.2l3.9 2.8q1.2.9-.2 1-3.9.1.5 3.3 1.3.9 1.9 2.4 1.1 3.2 1 7.7a1.5 1.3 32.4 0 0 .2.9q1.2 1.5-1.4 1.2-3.4.7.8 1.7.5 2.8-.1 5.5a.4.3 20.4 0 1-.6.2q-.9-.4-1.5.2v.8q2.6 3.8-1.3 6.6-.8-.1-1.3.4-3 2.5.4 1.7a1 .5-18.8 0 1 .8 0l.1.6q-.6 1.6-2 2.7l-3.3 4a1.3 1.2-72.2 0 1-.8.5q-2 .2-1.7 1.3-2.6.9-2 3.3-.7 1.3-2.4 2-1.8.6-5.6 3-1 .1-2-.3l-.3-.7q.4-1.8 1.6-3.3 1.2-1.7 2-3.7.4-1-.7-.2-.5.4-2 3.2l-1.9 3.2a1 .7 52 0 0 .1 1q.5.9 0 2h-4q-1.7 0-4-1l-10.7-4.3q-1.3-.5-4-2.7-12.3-9.7-9.7-25.4l.1-1.2q0-1.2 1-1.9l.1.6.5.2 3.7.4.6 1a1.1 1 34 0 1 .3.8q-.6 3 2.2 3.6l.5.6q0 1.8-1.7 1.5a1.3.9 72.3 0 1-.7-.6q-1-1.5-2.5-.6a.8.7-21 0 0-.3.8q.4 2.2 3.4 2.4 2.8.3 3.3-1.7l.5-1.5q.7-1.5-1-1.5a1 .8-11.7 0 1-.9-.4q-1.8-3.2 1.2-1.9l.9.3q1 0 .6-1a1 1 86.8 0 0-.7-.6l-1.4-.4-.4-.6q.1-2.6-2.2-1.2l-1.4.8q-1.8-2.5-.3-4.3 1.4-1.5 1.5-1.8.4-1.8-2.2-2.2 1.1-1 1-2.7-.2-.9.4-.7-.2 1.8 1.2 2.9h.8q2.6-2 3.7-3.8 4.2-6.4 10.4-9.4 0 2 1.5.8 1-.9.7-1.8 2.6.2 3.4-.3 2.4-1.4 5-1M465 193q1-.6 1.6-1.5.3-.4.3-.9 0-1.5-1.5.3a4 4 11 0 1-1.8 1.2q-1.8.5-2.6 2a1.1 1 46.6 0 0 0 1l1.4 3.1q.2.5.3 0 .2-3 2.3-5.2m15.6 1.2.2.6.3 1q.2 2.6 2.6 1.3l.3-.7q-.8-2.2-2.9-3.3-3.6-2.5-.5 1m-23.7.2-1 2.1a1.3.5-57.7 0 0-.1.9q.2.9.6 0l1.3-3q-.2-3.2-.8 0m13 6.6q.3 1.2.3-1.3a1.6 1.1-33.7 0 1 .3-.9q.9-1 0-2.3-1-1.9-1.3 0l-.4 2q0 .8-.2 1-.4 1 .7 1zm-12.3 0q-1.3 1.1-.5 2.3.3.4.5-.1.7-1.8 2.6-3.5 1-.8.2-1.1a.9.7-50.4 0 0-.8.2q-1.2 1-2 2.3m26.5.6q-.2.5 0 .8l.8-.2q.8-.8 1.7-1.3 1.1-.7-.3-1.2-1.2-.4-2.2 1.9m1.8 3.5q-3 1.7-.6 2.2a1.2 1 27.3 0 0 1-.2q.7-.6.6-1.7.5-2.2 2.3-3.3a1 .6-25.4 0 0 .5-.7q0-.5-.8-.2-2.7 1-3 4m-11.7-2.3a.5.5 25.6 0 0 .3.7q1.7.7 1.1-.7-.5-1.6-1.4 0m-13.2.4q1 1.2.7-.6a.4.4 77.2 0 0-.5-.3q-.3 0-.4.3zm7 .5q-1.6-1.1-1.2.5l.6.5q.8 0 1.2-.8.3-.4-.2-.2zm-11 3.2q-1.1 0-2-.6l-.7-.2q-1-.1-.3.7 3 4.3 5.4-.1a.4.4-70 0 0-.3-.6q-.7-.2-1.2.4a1.5.7-56.2 0 1-.8.4m22.4 3.8q1.2-1-.4-1a1.3 1-59.2 0 0-.9.4q-1.1 1.1-2.7-.2a.7.7-63.3 0 0-1.2.4q-.6 2.3 0 3.2.5.6 2.5 1 3.3.9 2.4-3a.8.7-25.5 0 1 .3-.8m-13.7 1.3q.7.7 1.1.2a1 1 47 0 0 0-.9q-2.4-3-3.9.8-.4 1 .5 1.4a.8.5-55.3 0 0 .7-.4l1-1.1a.6.4 42.3 0 1 .6 0m-31.4-.4q-1.1 1.3-.4 4.2.4 1.5 1.3.1l2.6-4a.5.5-66.2 0 0-.3-.8q-2.3-.6-3.2.5m52.7 2.2q-.2.1-.2.3l.4.7q1 .4 1.7-.5a1.2 1 57.4 0 0 .1-.9q-.5-1.8-1.5-.2-.1.3-.5.6m-32.6 5.3q1.9-.6 1.8-2.7a1.6 1.4-34 0 1 .3-.9q.7-1 .1-2.1a.8.7-16.3 0 0-.8-.4q-2 .2-3.9 1.4-.4.3-2.7 3.8v.8q.6.5 1.3.8t1.5 1q1.7 1.4 2-1zm16-3.6q.5-1.3-.9-.4a.8.7-23 0 0-.4.7q.1.6.7.4a1.3 1-85.9 0 0 .6-.7m-8-.5q-2.3 1.4-1.3 2.1l.8-.1q.7-.8 1-1.6.1-.8-.5-.4m12 1.5q-1.3-1-2.7 1.2-1 1.5.7.8 1.9-.7 4 .1l.6-.2q.4-2-1.8-1.7a1.2 1 57.1 0 1-.8-.2m12 2.3q-2-.3-.4.8a1 .8 48.6 0 0 .9.1q.5-.2.1-.6-.2-.3-.7-.3m-47.3 1.9a1.3 1.3 0 0 0-1.3-1.3 1.3 1.3 0 0 0-1.3 1.3 1.3 1.3 0 0 0 1.3 1.2 1.3 1.3 0 0 0 1.3-1.2m19 5.6q.1.2.2 0 1.6-3.2-1.8-3.9a.4.4-85.6 0 0-.5.5q0 2.1 2 3.2zm6 1.3q-.6-1-1.5-1.6a.4.3 22.6 0 0-.5.2q-.3 1.5 1.3 2l1.1.4q1.8.6 1.1-1a.5.5 60.2 0 0-.7-.3l-.4.4a.3.3-33.6 0 1-.5 0m14 4.4a2.9 1 120.6 0 0 2.3-2 2.9 1 120.6 0 0 .7-2.9 2.9 1 120.6 0 0-2.3 2 2.9 1 120.6 0 0-.6 3m-21-2.7a1 1 0 0 0-.5-.8h-.4a1 1 0 0 0-.8.4l-.9 4.2.5.7.5.1a1 1 0 0 0 .8-.5zm-14.6 1a1 1 21.7 0 0-.5-1q-2.5-1-1.4 1 .3.5.7.7.8.4 1.2-.6m24.9 2.8q-1.4.8-.3 1.9a.4.3-54.1 0 0 .5-.1l1.7-3.2.3-.9q0-1.7-1.2-.9a1 1 76.7 0 0-.5.8v1.6a1 .8-16 0 1-.5.8m-19.7 3.1.9-2.5q.2-.7-.5-.5-2 .6-2.7-.3l-.4-.6q-1.5-1.1-1 .7a2 1.2 28.7 0 0 .4.8q1 1 1.4 2.4.9 3 2 0m11.6 4.4a2 .7 14.5 0 0 1.6 1q1.6.5 2-.4.4-.6-.1-1.6-1.2-1.9-3.1-3a.3.3-76.5 0 0-.5.4z"/><path fill="#25211c" d="M458 186q.4.9-.7 1.8-1.5 1.3-1.6-.8z"/><path fill="#f6e7ba" d="M61.2 186.3q-.6 3.5-2.7 6.5l-2.2-.6q.8-3.8 4.2-5.7z"/><path fill="#090706" d="M322.4 187q3.4.8 6.6 2 5.4 2.2 7 3.6 3.4 2.9 2.4 8.4-1.2 6.6-6 10-7 4.9-10.2 5.7l-9.6 2.5q-.6.2 0 .4 2.8 1 3 2.8 2.9 11.1 3.4 22.6-1.8.7-3.2-.7l-1-.9a1.5.7 27.6 0 1-.6-.7q-.6-2.4-.6-4.8 0-3-.4-4.7-1.3-6.3-1.9-12.7l-.6-.6q-6-.6-7.2-.2-2 .7-4 .4l-3.7-.6q-4.4-.4-8.4-2.1-2.7-1.2-4.6-3.4-1.4-1.8-1.3-4.4.6-7 5.8-11 12-9.3 28.3-11.7 3.6-.5 6.8.2m-3.4 4.7-14.2 3.6q-10 3.3-16.5 11.5-1 1.2-1.3 2.7-.8.6-.3 1.3 4.4 5.9 11.8 6.2 2.8.1 9.7-.5 6.1-.6 9.5-1.8 6.8-2.5 11.6-8.1 2.4-2.8 3-5.2.7-3-.2-6.3l-.6-.6q-1.5-.5-2.9-1.3-4.4-2.7-9.6-1.5m-4.1 44.9q.1 2.2 2.5 3 1 .3.7-.7l-3.8-14.3q-.3-1.1-.6-.7l-.1.6q.1 4.5 1 9z"/><path fill="#83786e" d="M446.7 189q.2.8 0 1.5t-.8 1.2l-3.9 3q-.3 0-.3-.4 1.8-3.4 5-5.3"/><path fill="#743f4c" fill-opacity=".2" d="M466.7 191.6q-.7.9-1.6 1.5-2.1 2.1-2.3 5.2 0 .5-.3 0l-1.4-3.1a1.1 1 46.6 0 1 0-1q.8-1.5 2.6-2a4 4 11 0 0 1.8-1.2q1.5-1.8 1.5-.3 0 .5-.3.9"/><path fill="#f26c2d" d="M328.6 193.2q1.4.8 2.9 1.3l.6.6q1 3.4.2 6.3-.6 2.4-3 5.2-4.8 5.6-11.6 8.1-3.4 1.2-9.5 1.8-7 .6-9.7.5-7.4-.3-11.8-6.2-.5-.7.3-1.3 0 .5 2 0l1.3-.7q4.5-4.3 9.3-7.7 2.4-1.6 5.8-2.8l6.1-2.3q3.5-1.1 7.3-1 .8.5.5 1.3a.3.3-75.9 0 0 .2.5q1.9 0 3.6-.8.4-.2 1-.2 1.8 0 .9-1.1-.4-.5-1-.7-1.8-.6-3.7-.2-.4-1.2-1.3-2 5.2-1.3 9.6 1.4m-.5 5a2 2-71 0 1-2 1q-2.2 0-3.3 1.9-.2.4.3.3 3.8-1 6.5-3.3l.1-.8q-.5-.6-1.6.9m-23.6 7.6q-2.2-1.8-.6 1.3a1 1 68.7 0 0 .8.4q1.5-.4-.2-1.7m9.3.5-2 .5-.5.5q-.2 2.4-2.3 3.8-1.1.8-2 1.9-1.2 1.7.3 1.8a1.4 1-59.1 0 0 .8-.4q2.8-2.4 3.6-4.2 1.2-2.8 3-3.8a.4.3-31.2 0 0 .1-.5q-.2-.4-.4 0a1 .3-60.9 0 1-.6.4m-13 3q-.7-.9-.5-2 .2-.9 0-1-.4-.4-1.5.9a1 1 39.7 0 0 .2 1.5q2.2 1.9-.4 3l-.5.7q-.4 2.1 1 .5l1.4-1.5a1.7 1.3 10.4 0 1 .8-.4q1.8-.3.2-1.1z"/><path fill="#faf3df" d="M319 191.7q.9.9 1.3 2-.3 1.3-1.6 1.3-3.7-.1-7.2 1l-6.1 2.3q-3.4 1.2-5.8 2.8-4.8 3.4-9.3 7.7l-1.2.7q-2.2.5-2.1 0 .4-1.5 1.3-2.7 6.5-8.2 16.4-11.6z"/><path fill="#25211c" d="M481.3 193.2q-.8.2-.6 1-3.1-3.5.6-1"/><path fill="#83786e" d="m56.3 192.2 2.2.6-1.3 2.4q-1.4-.2-2 1-.3-2.2 1-4"/><path fill="#743f4c" fill-opacity=".2" d="M457.8 194.5q-.4-.5-.8 0 .6-3.2.8 0"/><path fill="none" d="M481.3 193.2q2 1 2.8 3.3l-.3.7q-2.4 1.3-2.6-1.4l-.3-1-.2-.6q-.2-.8.6-1"/><path fill="#af6c54" d="M325 194.7q1 1.2-1 1.1l-.9.2q-1.7.8-3.6.8a.3.3-75.9 0 1-.2-.5q.3-.8-.6-1.3 1.3 0 1.6-1.2 1.9-.4 3.7.2.6.2 1 .7"/><path fill="#403222" d="M441.7 194.3q0 .3.3.5-.9 1.5-2.2 2.5-.7-.2-.6.7-.4-1.2-1.4-.9a1.2.5-72.1 0 0-.6.7l-1.5 3.2a1.1 1 3.9 0 1-.7.6q-.9.2-.7-.8.7-3 3.3-5a1.3 1 22.9 0 1 .9-.2q2 .2 3.2-1.3"/><path fill="#90554d" fill-opacity=".7" d="m457.8 194.5-1.3 3q-.4.9-.6 0a1.3.5-57.7 0 1 .1-.9l1-2.1q.4-.5.8 0"/><path fill="#b8b599" d="M57.2 195.3q-.7 2.8-2 5.2-1.6 2.8-2.2 4.7-2 5.8-4.8 11.3-.7.2-1.2-.2 3.2-9.4 4.6-11.5 1.5-2.4 1.3-4.5a1.4 1.2-33.7 0 1 .2-.9l2.2-3.2q.5-1.2 2-1"/><path fill="#a96e61" fill-opacity=".7" d="M470.7 196.6q.8 1.3 0 2.3a1.6 1.1-33.7 0 0-.4 1q0 2.4-.3 1.2l-.6-.5q-1.1 0-.7-1l.2-1 .4-2q.3-1.9 1.4 0"/><path fill="#d0c196" d="M239.2 196.5q0 1.3-.7 2.5-.6 2.2 1.8 2-3 6-6.8 11.5-3.6 9-7.4 17.8l-.4.6q-.7.5-.7-.7 2.5-14.1 9.5-26.7 1.3-.6.8-2z"/><path fill="#83786e" d="M329.6 198q-2.7 2.4-6.6 3.4-.4 0-.2-.3 1-2 3.3-2a2 2-71 0 0 2-1q1-1.4 1.6-.8v.8"/><path fill="#90554d" fill-opacity=".7" d="M460.5 198.7q.7.3-.2 1.1-2 1.7-2.6 3.5-.2.5-.5 0-.8-1 .5-2.1.8-1.3 2-2.3a.9.7-50.4 0 1 .8-.2"/><path fill="#111512" fill-opacity=".4" d="M494.7 201.8q-2.8 2.3-1.1-2a1 1-83.1 0 1 .6-.7q2-.3 1.4 1.5-.2.7-.9 1.2"/><path fill="#25211c" d="M486.4 199.8q1.4.5.3 1.2-1 .5-1.7 1.3l-.7.1q-.3-.2-.1-.7 1-2.3 2.2-1.9"/><path fill="#050504" d="M172 201q4.7 1.4 4.3 4.3a1 1-70.6 0 0 .6 1.2q2.3 1.5 1.8 3.5-.2 1.4.8 5.5.8 3.4-1 6.4-2.2 3.6-5.6 5.8a1 1 34 0 1-1 .1l-6.4-1.4a1.6 1.4-10.5 0 1-.8-.5q-5.7-6.7-3.8-15.3.2-1 .2-2.7t1-2.7q3.4-2.5 7-4 1.4-.6 3-.2m-1.1 14.6a1.8 1.2 55.7 0 0 0-2.1 1.8 1.2 55.7 0 0-2-.8 1.8 1.2 55.7 0 0 0 2.1 1.8 1.2 55.7 0 0 2 .8"/><path fill="#f6e7ba" d="M438.3 200.7q2.6.4 2.2 2.2-.1.3-1.5 1.8-1.5 1.8.3 4.3-.3 0-.3.3l-3.7-.5q-.4 0-.5-.2-.2-.2 0-.6l.7-1.5q2-1.4 2-3.7-.1-1.3.8-2"/><path fill="#25211c" d="M489 201.3q.8-.3.8.1a1 .6-25.4 0 1-.5.8q-1.8 1.1-2.3 3.3-.5-.3-1-.3.3-3 3-4"/><path fill="#685b4f" d="M235.3 201.5q.5 1.4-.8 2-.5-1.2.8-2"/><path fill="#90554d" fill-opacity=".7" d="M475.8 202.9q.5 1.4-1.2.7a.5.5 25.6 0 1-.3-.7q.9-1.6 1.4 0m-13.9-.2q.2 1.8-.7.6l-.2-.6q0-.2.4-.3a.4.4 77.2 0 1 .5.3"/><path fill="#6e6053" d="M437.5 202.8q0 2.3-2 3.7 0-2.4 2-3.7"/><path fill="#90554d" fill-opacity=".7" d="M468.5 203.8q.5-.2.2.2-.4.9-1.2.8l-.6-.5q-.4-1.6 1.2-.5z"/><path fill="#312f2a" d="M230.7 206.4q-1.7.8-1.9 2.7 0 1.1-.2 1.4-.5 1.2-1.5.6a.8.7-66.4 0 1-.2-.8q.3-1.7 1.7-2.8a1.8 1-24 0 0 .5-.8l.2-.8a2 1-89.8 0 1 .5-.8q1.3-1.2 1.4.6a.8.7-15.7 0 1-.5.7"/><path fill="#af6c54" d="M304.5 205.8q1.7 1.3.2 1.7l-.7-.4q-1.7-3 .5-1.3"/><path fill="#743f4c" fill-opacity=".2" d="M486 205.2q.5 0 1 .3.1 1-.6 1.7a1.2 1 27.3 0 1-1 .2q-2.3-.5.6-2.2"/><path fill="#9e6950" d="M314.6 206.4q-1.7 1-3 3.8-.7 1.8-3.5 4.2a1.4 1-59.1 0 1-.9.4q-1.4 0-.1-1.8.8-1.1 2-2 2-1.3 2.2-3.7l.5-.5 2-.5a1 .3-60.9 0 0 .6-.5q.2-.3.4 0a.4.3-31.2 0 1-.2.5"/><path fill="#f26c2d" d="M300.3 207.3q-.2 1.1.5 2l.7.6q1.6.8-.2 1a1.7 1.3 10.4 0 0-.8.5l-1.3 1.5q-1.5 1.6-1.1-.5l.5-.7q2.6-1.1.4-3a1 1 39.7 0 1-.2-1.5q1.1-1.3 1.5-1 .2.2 0 1.1"/><path fill="#90554d" fill-opacity=".7" d="M459.5 206.8q-2.5 4.4-5.4.1-.6-.8.3-.7l.6.2q1 .7 2.2.6a1.5.7-56.2 0 0 .8-.4q.5-.6 1.2-.4a.4.4-70 0 1 .3.6"/><path fill="#9e6950" d="m443.3 210 1.4.4a1 1 86.8 0 1 .7.6q.4 1-.6 1l-1-.3q-3-1.3-1 1.9a1 .8-11.7 0 0 .7.4q1.8 0 1.1 1.5l-.5 1.5q-.5 2-3.4 1.8-2.9-.3-3.3-2.5a.8.7-21 0 1 .3-.8q1.6-.9 2.5.6a1.3.9 72.3 0 0 .7.6q1.8.3 1.7-1.5l-.5-.6q-2.8-.7-2.2-3.6a1.1 1 34 0 0-.2-.9l-.7-.8q0-.3.3-.3l1.4-.8q2.3-1.4 2.2 1.2z"/><path fill="#743f4c" fill-opacity=".2" d="M489.8 208.8q.2.6.7.9l.4.2q.7.7-.4.6-4.2-1-.7-1.7"/><path fill="#a96e61" fill-opacity=".7" d="M475.5 210q1.6 1.3 2.7.2a1.3 1-59.2 0 1 .9-.4q1.6 0 .4 1a.8.7-25.5 0 0-.3.8q.9 3.9-2.4 3-2-.4-2.4-1-.7-1-.1-3.2a.7.7-63.3 0 1 1.2-.4"/><path fill="#90554d" fill-opacity=".7" d="M467 212.3q-.5.5-1.2-.2a.6.4 42.3 0 0-.7 0l-1 1.1a.8.5-55.3 0 1-.6.4q-.9-.4-.5-1.3 1.5-4 3.9-.9v.8"/><path fill="#f6e7ba" d="M437.6 211.2a.5.5-66.2 0 1 .3.7l-2.6 4.1q-.9 1.4-1.3-.1-.7-3 .4-4.2.9-1 3.2-.5"/><ellipse fill="#3a3630" rx="1.8" ry="1.2" transform="rotate(55.7 -117.7 267.8)"/><path fill="#743f4c" fill-opacity=".2" d="M489 214.4q-.6 1-1.7.5l-.4-.7q0-.2.2-.3.4-.3.5-.6 1-1.6 1.5.2a1.2 1 57.4 0 1 0 1"/><path fill="#89634b" d="M456.7 213.5q.6 1-.1 2.1a1.6 1.4-34 0 0-.3.9q0 2.1-1.7 2.7l-.6.6q-.2 2.5-1.9 1.2-.7-.7-1.5-1-.7-.4-1.2-1l-.1-.7q2.3-3.5 2.7-3.8 1.8-1.2 4-1.4a.8.7-16.3 0 1 .7.4"/><path fill="#13100e" d="M40.9 214.3q.4 1.4-1.2 1a.7.5 13.2 0 1-.5-.5q.1-.5 1.1-.8z"/><path fill="#90554d" fill-opacity=".7" d="M469.9 216.3q-.6.2-.7-.4a.8.7-23 0 1 .4-.7q1.4-1 .9.4a1.3 1-85.9 0 1-.6.7m-6.9-.8q-.3.8-1 1.6l-.8.1q-1-.7 1.3-2 .6-.5.4.3"/><path fill="#a96e61" fill-opacity=".7" d="M475.3 216.9q2.2-.4 1.8 1.5l-.6.3q-2.1-.8-4 0-1.7.6-.7-1 1.4-2.2 2.7-1.1a1.2 1 57.1 0 0 .8.3"/><path fill="#97826f" d="M47 216.3q.5.4 1.2.2-4 9.7-5.7 20 0 .3-.3.4a.4.3 78.1 0 1-.4-.3q-.3-2.6.5-5.1l2.6-9.3q.2-3.3 2-6"/><path fill="#25211c" d="M487.1 219.2q.4.4-.1.6a1 .8 48.6 0 1-1 0q-1.4-1.2.4-1 .5.1.7.4"/><circle cx="437.9" cy="220.8" r="1.3" fill="#89634b"/><path fill="#c27c67" d="M456.6 222.6q3.4.7 1.8 4l-.1-.1-.2-.2q-2-1-2-3.2a.4.4-85.6 0 1 .4-.5"/><path fill="#524c41" d="M314.3 224.6q2 7 3.8 14.3.3 1-.7.7-2.4-.8-2.5-3l-.3-3.2q-.9-4.4-1-9v-.5q.4-.4.7.7"/><path fill="#743f4c" fill-opacity=".2" d="M487 223.8q-.2 2.1-1.3.4.5-.5 1.3-.4"/><path fill="#2c2925" d="M422 225.5q.7 2.3 2-.2 1 4 3.4 7.3l1.1 3.2q.2 5 .8 6.7 3.4 11 3 22.4-.2 8.3-1 14.2-1 7.2-4 13.9-2.2 8-5.5 15.4-3 7.1-8 14.2-4.8 6.7-10.1 13-6.7 7.8-11 12.2-8 8.2-16.4 12.8-20.9 11.5-47.8 13.2h-.2q-4.7-1.5-10.1.3-2.2.8-4.1-.4-1.4-.8-3.4-1.6-1.6-.6-3.5-1-7.5-1.3-15.2-1.4-5.5 0-10.2-2.2l-8.9-5.1q-14.8-8.6-27-22-9.2-9.8-15.2-20.7-4.4-8.2-6.3-12.9-2.7-6.7-3.4-14 1.8.2 2.4 1.1a2 2-18.2 0 0 1.7.9q2.5 0 1.6 1.1-1 .1-.7 2.4v.3q-1 1.3-.2 2.8l7.1 8q.3.4-.1.2l-2.8-.9q-2.3-.3-.8.9 4.3 3.3 6 6.8a1.6 1.1-58.6 0 1 0 .9q-.4 1.8 1 3l2.1 1.9q6.7 8.3 14.6 15.4.8 1 2 1.6l2 1.4q4.1 3.6 9 6 3.3 2.2 6.9 4 3 1.6 7.2 3.2l14 4.8q3.2 1.1 6.7.7 7.1 1.5 14.4 1l5.7.9h3.3q1.5 0 3 .6a1.7 1.5 45.5 0 0 .9 0l15-3q14.5-3 30-11.6 7.1-4 12.5-8.2 5.5-4.3 11-10 7.1-7.5 13-17.4 4.6-7.6 7.5-13.2t5-12.3 3.3-12.9q1-4.5 1.3-9.5l.8-9.3q.9-10.7-2.7-21l-.6-.7q-.9-.7-.5-2a1.2.8-59.6 0 0 0-.9q-.9-1.3-1.6.1l-.6 1q-1 1-1.3-.4a1 .8-33.3 0 1 .3-.8q1.6-1.7 0-3.6a1.3 1 34.5 0 1-.3-1q.3-1.8 1.4-.6.3.3.5 1m-50 130q3 3.5 5.6.6l.7-1.3q.5-1.8-1.1-1.4l-1.4.7q-1.6.8-3.7 1-.6 0-.2.4"/><path fill="#111512" fill-opacity=".4" d="M491.4 225.8q1.8 1.2 0 1h-.1.3q.2-.1 0-.1-.9 0-.8-.7a.4.4 23.4 0 1 .6-.2"/><path fill="#a96e61" fill-opacity=".7" d="M462.7 226q1 .7 1.4 1.7a.3.3-33.6 0 0 .5 0l.4-.3a.5.5 60.2 0 1 .7.3q.7 1.6-1 1l-1.2-.4q-1.6-.5-1.3-2a.4.3 22.6 0 1 .5-.2"/><path fill="#403222" d="M487 226.5q2.6 1 1.9 3.2l-.7.4-3.2-.9q1.4-1 2-2.7"/><ellipse fill="none" rx="2.9" ry="1" transform="rotate(120.6 174.3 251.7)"/><rect width="1.8" height="5.5" x="-.9" y="-2.8" fill="#c27c67" rx=".7" transform="rotate(11.7 -900.7 2340.6)"/><path fill="#6e6053" d="M442.2 229.5a1 1 21.7 0 1 .4 1q-.4 1-1.2.6-.4-.2-.7-.8-1-2 1.4-.8"/><path fill="#90554d" fill-opacity=".7" d="m469.4 231.8-1.7 3.2a.4.3-54.1 0 1-.5.1q-1-1.1.3-2a1 .8-16 0 0 .5-.7v-1.6a1 1 76.7 0 1 .5-.8q1.2-.8 1.2 1z"/><path fill="#443e38" d="M445.5 233q.8.9 2.7.3.7-.2.5.5l-.9 2.5q-1 3-1.9 0-.4-1.4-1.3-2.4a2 1.2 28.7 0 1-.5-.8q-.5-1.8 1-.7z"/><path fill="#3a3630" d="m432 234.8 7.2 6.9q.7.6 1.6.9 9.9 3 16.8 6.5a1 1-80.5 0 1 .7.8q1.3 12 1.3 24l-.5 7.7q-.2 3.8.1 7.6-.8 3.8-1.2 7.5-.5 5.6-.9 7.5-2.2 12.5-5 22.4-.7 2.4-1 4.4l-1 4.4q-1 2.2-2.5 4.2-1 2.4.9 3.7.4.3 0 .3-4 1-4.2 5.4-.1 1.9-3.3 7a.8.7-48.9 0 0 0 1q.8 1 2.3.4a1 .8-37.2 0 1 .7 0q1.2.5-.3.7-6 .6-6.7 6.6 0 .6-.6 1a1.3 1-18.7 0 0-.5.7q-.6 2.7-1.7 3.6-2.6 2-3.5 5.2-1 3.7-4 6.2-1.8 1.6-2.4 4-.4 1.5-1.7 2.8-1.4 1.4-2 2.6-1.8 3.2-4.4 5.7-2-.6-1-2l.8-.8q9.1-12.4 17-25.8.7-1.2 2-5 1-2.6 3-5.8 2.7-4.2 6.5-15.3.7-2-.8-1.7a1 .8-84.3 0 0-.6.6q-2.5 7.8-6.4 14.8-.5.8-1.6 1.8-1 .9-1.5 2l-1.8 3q-4.8 5.6-5.7 7-10.4 16.3-25 29.1-4.6 4.6-9.4 9l-.6.9q-.3.7-1 1l-1 .6q-4.3 3-7 6.2-.7.8-1.5 1a1.9.9 2.2 0 0-1 .3q-4.6 4.2-10 7.5-10 8.8-21.3 16-6.3 4.7-13.7 7.5l-2.9 1q-3 .9-4.6 2.7-3.8 4.2-8.6 3.6 2.8-2.4 1.7-5.7l.3-.7q1.6-1.2 1-3.3-.5-1.5.8-2a1.4 1-6.4 0 0 .7-.6q2.2-4.8-1.8-3.3-1.3.5-2 1.7-2 3.2-2.4 7-2 4.2-2.3 9-11.7 2.8-23.4 6-11.3 2.6-22.8 4-4.3.6-11.6.7-5.9 0-11.7.5-11.5-.5-23-.7-3.8-1.2-7.2-1.1-4 .1-7.3-1-12.6.4-24.7-2.7-8.6-2.2-11.6-2.5-3.3-.4-9.4-2.8-35.1-14.1-63.5-32.4l-2.3-1.3q-1.7-1-3.7-2.8-2.2-2-7.2-5.1a1.5 1 48.5 0 0-1-.3q-.9.2.5 1.1 4.7 3.3 8.4 7.6.5.7.5 1.3-.2.8-1.2 1-3.4-3.2-7.1-6-3.2-4.1-7.2-7.3-1.3-1-2-2.4l-1.8-2.6q-.8-1.1-2.5-2.3-1.4-1-2.5-2.4-2-4-5-7.3 1.9-1 3.8-.5l2.6.6q1.9.4 3.5 1.3 2 1.2 3.2 1.5 7.8 2.3 15.5 5.1 4.8 1.3 9.1 3.8 1.5.8 3 2.1 5.4 5 11.4 9.1l3.7 3.3q1.4 1.3 3.2 2.1 2.4 1.1 3.3 1.7 4.1 2.6 7.6 3.8 1.8.7 1 2.2a1 .7 51.7 0 0 0 .8l.4.9q-.3 5.5 2.8 1.5 2-2.4 2.5-3.6.3-.4.8-.5.3 0 .8.3 1.5 1 3.3 1.2 2.5.3 3.4.7l3.6 1.5q1.7.8 3.7 1 3.5.4 6.8 1.4 4.7.4 9.3.2 5 .5 8.8-.7 3.1-1.1 5.4-1.3a1.9 1.3 49.4 0 1 1 .3q1.5.8 3.2.8 5.3 1 10.6 1.6 5-.3 9.9.7 1.4.3 3.1.2h2.8l.9-.1q3.4-2.4 6.6-1.3 1.7.5.8 2a1.5.8-43.3 0 0-.3.8v.5l-7.7 11.4a1.5 1.5-59.7 0 0 .5 2.2q1.1.5 1.8-.4l1-1.1q4.4-4.6 7.2-10.3l.6-.8q1.4-1 1.8-2.7.5-1 1.3-.8a1.8.7 25.8 0 0 1 .1q2-.6 4-.2 2.6.5 3.9.5 4.4-.3 7.4 0 2.2.3 4.1-.1 3-.6 4-.5 3.9.3 7.3 2-3.6 4.6-6 10-1.3 2-.5 4.2.5 1.5 1.4.2l8-12.4q1-1.9 1.1-2.5.4 1.5 1.3.4a2 1.2-69.8 0 1 .7-.6q2.6-.9 6.6-1.4 6.9-1 13.5-3.1 2.9-.3 6-2.5 2.4-1.8 5.6-.8-.5 1.6.7 2.6h.7q2.7-2.2 4.2-5.3 1.4-3 2.4-4.4 2.6-3.5 4.6-7.2l.5-.6h.6q1 .8 2.4.4l5-1.4q2.4-.7 4.7-1.9 6.5-3.4 12.3-8 2.4-1 5 .3-.8 3-2 5.8-1.6 4.4-.5 7.4 1 2.8 2.6.3 3-4.9 3.9-10.4.3-2.5 1.1-4.7t1.4-4.7q4.7-2.5 9.3-5.4 2.6-3.1 6-5.4a1.6 1.4-10.6 0 0 .5-.7l2-5.7a1.8 1.3-16 0 1 .6-.8q1.3-.9.6-2.3l-.8-.2q-9.9 4.5-20.7 6-4 .6-8 .1-4.4-.6-8.8-.6l-2 .3q-1.2.3-2.3-.8.6-4 1.9-6.2t1.3-4.2a.8.5 18.6 0 0-.4-.6l-1.5-.7q27-1.7 47.8-13.2 8.4-4.6 16.4-12.8 4.3-4.4 11-12.2 5.3-6.3 10-13 5-7 8.1-14.2 3.3-7.5 5.4-15.4 3-6.7 4-13.9.9-6 1.2-14.2.4-11.4-3.1-22.4-.6-1.8-.8-6.7 2.4 1.7 3.5-1m-50 139.6q-2.4-1.6-.6 3.4a1 1 68.9 0 0 1 .5q2.3-1 2.7-3.2a.4.4 2.6 0 0-.4-.5l-1.9.1a1.6 1 48.5 0 1-.9-.3m-3.2 12.1-.7 4a3.1 3 34.7 0 0 .4 2.3q2 3.1 2.8.4 2-6.2 2.8-12.1a1 1 .3 0 0-.7-.7q-3 .3-3-1.7a.7.5-82.9 0 0-.2-.7q-.4-.1-.5.4l-.1.6q-1.4 3.6-.9 7.5m-203 72.2q1.4.6 2.4.2.8-.4 1.4-1.8l2.6-6q.5-1 2.3-3.1 1.9-2.2 1.5-5-.2-1.4-1.3-1-.5.2-1 .9-5.3 6.6-8.5 14.6a1 1 22.3 0 0 .5 1.2"/><path fill="#743f4c" fill-opacity=".2" d="M470.5 235.3q-.8 2-2 3.7-.7-.2-.8-.7 1.6-2.8 2.1-3.2 1-.9.7.2"/><path fill="#6a5133" d="M479.2 235q1 1 .6 2.1a1 .7 2.8 0 1-.7.5q-1 .1-1.8.7-.7-2.4 2-3.3"/><path fill="#050504" d="M369.3 235.8q1-.3 2 .4l1 .2q4.8-.6 7.8 4 2.3 3.7 2.9 5.2 1.4 3.4-.3 6.4a.6.4 25.6 0 1-.7.2q-.6-.3-1.4.3-1 .7.2.5t1.6.5q.4.5 0 1.4-1.5 4.3-2.7 8.8-4 6.7-9.4 12.4-1 1.7-2.6 2.8-2 1.4-2.7 2.4l-2.2 3q-2.2 1.6-4.6 2.6l-17 6.9-3 .7-4.4 1q-3.2-.3-6 .8-2.3.9-4 1-4.2.5-8.3 1.9a.6.4-20.4 0 0-.4.6q.1.3.9.2 2.2-.3 1.8 1.7a1.5 1-22.8 0 1-.5.8q-1.2.9-1 2.3l.6.6q1 0 1.1-1.1.3-1.2.9-.9a1.3.7 88.8 0 1 .5.8q1.7 8.5.6 17 1.2 7.9-2 15-.2.5-1.2 1.5-.7.7-.8 1.8-.4 2.3-2.2 3.5-.7.5-3.5 1.6-8.6 3.4-16.5-1.4-2.5-1.6-3.8-4.7-3-7.9-3.5-16.7-.6-8.9-.3-16.1a1.5 1.2-27.1 0 1 .4-.9q1.7-1.8 1-4.3l-.6-.5q-8.7-.8-17.2-3-2.6-.6-1-3.2.4-.7-.3-.6a1 .6-73.5 0 0-.6.5q-.1.3-.4.5a1 .7 39.1 0 1-.9 0q-3.5-2-6.4-4.6-1.6-.7-2-2.4 2 0 2.2-1.5a.8.7 22.9 0 0-.3-.7q-2.2-1.4-2 1.8-2.4-3-3-6.4-.7-3.3-.7-5.2 0-2.8 1.6-5.2 1.5-2.3 2.7-4.8.8-1.7 2.3-3l2.8-2.2q3-2.3 7-2.7.3 2.4 2.5 1.8l.6.4q0 .6-1.3.8a.3.3 70.6 0 0-.2.5l1 1.6q.4.7 1 1 1.1.7 1-1.2v-1.4q.5-1.8.4-3.8 2.7-1 5.1.6l1 .4q5 .4 10 1.4 1.3.2 3.8 0 2.8-.5 5.6.9v4.1a1.4.9 74.8 0 1-.2.9q-1.4 1.7.3 3.1a.9.7 49.7 0 0 .8.2l2.3-1.1q1.1 0 3.2-.8 3-1.2 4 1.8a1.2 1-39.2 0 1-.2 1q-2.2 3.2-3.5 7-3.8 5.7-6.2 12-.8 2 .6.4 2.1-2.1 3.1-5 .7-2 1.9-3.7 1.6-2.2 2.1-3.4l2.8-6q1-2.8 3.6-4.4 1.2-.9 0-.9a1 .7-67.9 0 0-.6.4q-1.4 2-3.3-.3a2.3 1.6 62.8 0 0-1.6-.8l-6.9.4q-1.5-2.2-1.8-5 2.9-1.2 6-.7l9.2-.8a.3.3 73.8 0 0 .3-.5q-2.2-4.2-2.2-9l-.2-.9q-.6-1.5.4-2.8 1.9.5 1.3 2-1 2.9 2.5 2 1.7 1.8 1 4.3-1.3 0-2.5-.6-1.8-.2.2 2l.8 1.2q1.2 2.1 3 1.3 1.8.4 3.1-.5l2-1.5q6.4-3.1 13-5.5 5.5-3 10.8-4.8 1-.3 2-1 8-6.7 16.9-8.7m2.5 4.6q0-3.1-2.4-1l-.8.5q-4.1.4-7.6 2.3-1.2.8-3.6 1.6-2 .7-3.5 2.1-.3.4-2.7 2-2.9 2-6.1 3.2-3.4 1.2-6 3.5l-.9.4-5.7 1.8-1.2.2q-4.6-.5-2.9.6 1.4.8 5-.3l5.6-1.7q2.3-.7 3.2-1.8 1.6-2.2 3.5-2 1.6 0 3-.9 6-3.9 12.3-7.7 4.6-2.8 10.5-1.6 3.2.7 1.3 3.3-1.4 1.9-3.6 3.3-.4.3.1.3 1.5.2 2.8-.5l1.8-2.4q1-1.6 2.9-2.2l.8.2q.8 1.3-1.4 3.3a.8.8 32.7 0 0 .3 1.4q1.4.4-.2 2.4-.6 1 .4.6 1.9-.5 3.2-1.7l.2-.8q-.4-1.4-.2-2.7.4-2 .3-2.6-.4-1.2-1.6-2.4a1 1 48.1 0 0-.9 0q-2.5 2-5.5.1a1 1-75.8 0 1-.4-.8m-7.7 6.6a1 .5-40.7 0 0-1 .4 1 .5-40.7 0 0-.6 1 1 .5-40.7 0 0 1.1-.3 1 .5-40.7 0 0 .5-1m-3.2 12.2a.2.2-18.4 0 0 .2-.4q-.4-.7-.6-1.5-.3-.8 0-1.6.7-2.7 2.2-5 .3-.5-.2-.3-1.2.3-1.8 1.3-1.6 2.8-2.4 6.6a.8.6-72.4 0 0 .3.8q.8.4 2.3 0m11.4-5a1.2.8 59.7 0 0 0-1.4 1.2.8 59.7 0 0-1.2-.6 1.2.8 59.7 0 0 0 1.4 1.2.8 59.7 0 0 1.2.7m5 0q-.7 1 .5 1 1.3 0 1.8-1.5l-.3-.7q-1-.5-2 1.1m-6.3 4.6a2.8.9 130.2 0 0 2.5-1.6 2.8.9 130.2 0 0 1.1-2.8 2.8.9 130.2 0 0-2.5 1.6 2.8.9 130.2 0 0-1.1 2.8m-23.2-3.3a1 1 80.6 0 1 1 .8q.4 1.2 1.7.7l1-.2q2.1 0-.1-1.7a1 1 59.3 0 0-1-.2q-5.9.7-2.6.6m4.2 6.7q-2.7 1.2-4.2 3.8-1 1.9-2.9 3-1 .7-.9-.5.3-3.1 2.6-5.5a1.1.9-31.8 0 0 .3-.8q-.3-1.4-1.6-1.8a.4.4-79.9 0 0-.5.4q-.3 2.6-1.2 5l-1.2 4q-.7 2-2.2 3.7a1.7.9 85.6 0 0-.4.8l-.6 3.7q-1.1 1.3-1.6 3v1q.3 1.4-.7 3.2-1.1 2.1 1.6 1.1 2-.7 1.1-2.4a2 2 41.7 0 1-.1-2q1-2.3.5-3.6.5-1.3 2.1-1.7.5 0 .2-.4-1.3-1.4-.3-3 .9-1.1 1.5-2.6a1 1 8.6 0 1 .7-.6q2.3-.1 2.7-1.8.6-1.8 3.9-2.7 1.9-.5 3.2.8-.7 3.2 1.3 2a1.1 1 80.3 0 0 .4-.9q.2-1.8 1.2-3.3a1 1 17.1 0 1 .8-.4q3.9.1 3 3.6-.2.4.2.1l2.6-1.8q.4-.3 0-.5l-1.2-.2a1.2 1-25.2 0 1-.9-.2l-4.2-3.7-1-2.5a1.5.4 75.5 0 0-.4-.8q-1.5-1.2-1 .8a1.2 1 57 0 1 0 1q-1.1 1.6-2.8 2.7m-5.6-2.6a1.1.5 136.2 0 0 1-.5 1.1.5 136.2 0 0 .6-1 1.1.5 136.2 0 0-1.1.4 1.1.5 136.2 0 0-.5 1m-21.2.9q1-.4.5-1.7a1 1-20.1 0 0-.8-.4q-1.8.5-.6 1.8a1 1 58.7 0 0 .9.3m40.3-.6a1 .6 54.5 0 0 0-1.1 1 .6 54.5 0 0-1.1-.5 1 .6 54.5 0 0 0 1.2 1 .6 54.5 0 0 1.1.4m-86.3 1.3a.8.6 25.8 0 0-.4-1 .8.6 25.8 0 0-1 .3.8.6 25.8 0 0 .4.9.8.6 25.8 0 0 1-.2m6 .3.3-.7-.6-.5-.4.7zm22.4 0a.8.8 37.5 0 0 .1 1.4q2.9 1.3 3.7-1.6a.6.6 8.3 0 0-.6-.7q-2 0-3.2 1m13.6-1a2.2.6-34 0 0-2.2.7 2.2.6-34 0 0-1.5 1.8 2.2.6-34 0 0 2.2-.8 2.2.6-34 0 0 1.5-1.7m46.6.1q-1 0-1.1 1-.3 2-1.3 3.2-.4.5.1.6t1-.7q.6-.8 1.5-1.1a.9.7-6.1 0 0 .6-.6q.2-1-.1-1.9a.8.7 81.1 0 0-.7-.5m-37.1 3.8q-3.8 4.7-5.8 10.3-1.8 5.4-5.1 9.9a1 1-39 0 0-.2.9q.5 1.4 1.6 0 3.3-4.4 5.5-11.5.7-2.4 1.7-4.2l2.2-4q1.4-2.3 4-3.4.5-.3.5-.5a.6.3-3 0 0-.6-.3q-2.7.2-3.8 2.8m32.8-.9a1 .7 119.5 0 0 1-.6 1 .7 119.5 0 0 0-1.2 1 .7 119.5 0 0-1.1.6 1 .7 119.5 0 0 0 1.2m10.1-.3-1.4 3.8q-.1.5.3.2 2.1-1.5 2.9-4l-.3-.8q-1-.6-1.5.8m-93.5 5v.7q-.2.3-.8.5-4 1.8-5.6 5.6-1 2.4-2.3 4.1l-1.4 1.2q-.8.6-1.1 1.5-1.4 3.4-4.9 3.7a.4.3-15.4 0 0-.3.4q1.2 2.4 3 1.8 1.2-.3 2.2-2.2 2.4-4.5 6.5-8.8a1 1-61.4 0 1 1-.3q3.1.7 1.3 3-3.6 4.4-6.3 9.5-.8 1.5-2.2 2.4a.4.4-39.6 0 0-.1.6q.7.6 1.7.4.8-.1 1.6-1l2-2.8q.5-.8 1.2-3.1.7-2.1 2.4-3.6 1.3-1.2.8-2.8a.8.7 60.3 0 1 .1-.8q3.4-3.1 6.3-6.8.6-.8 0-1.2a1 .7-42.7 0 0-.8.2l-1.2.9-1 .6q-1 .6-.6 1.6a1.3 1 57.6 0 1 0 1q-2.4 4.4-4.9.6-1-1.7.6-2.8 2.3-1.6 3.2-3.3a1 1 43.8 0 0 0-.9q-1.6-2.4 1-3.4l.7-.6q.7-1.4 1.9-.4 2.4 2.1 3.8-.2a.4.4 24.2 0 0-.2-.6q-2.4-.8-5-.1h-.8q-2-.7-2.1 1.4t-2 1.7l-3.6-.3-2.8-.6q-2-.4-3.4 1.6-.6.8.3.2 3.6-2.5 6 .7l.7.3q.5-.2.7-.7l.6-.4 3.2 1a1 .7 7.9 0 1 .6.6m91.6-4.8a1.2.9-30.3 0 0-1.5-.2 1.2.9-30.3 0 0-.6 1.4 1.2.9-30.3 0 0 1.5.2 1.2.9-30.3 0 0 .6-1.4m-78.2 2.3q2.8.6 4.5-.2t0-1.4a1.3 1-43.3 0 0-1 .2q-1.3.7-2.7-.1-3-1.6-3 .9 0 5.7 1.6 1zm37.7 13.8q-2 4-2.9 8.5-.1.9.1 1.6.8 2 2.2-.3l2.4-9 3-8.6a1.9 1.2 59.6 0 0 .1-1q-.3-1.5 1.4-1.3l.7-.3q1.2-2.4.4-4.8l-.7-.5q-1.6 0-2 1.7l-.5.8q-1.4 1.8-1 4a1.9.9 66.6 0 1 0 1zm-17.4 1q.6 2.8 1.2-.2 1.1-2.8 2.9-5.2 1.4-2 2.4-4.3 1.5-3.3 3.8-6.1.3-.4-.2-.3-3.1.7-4.2 3.5-2.1 5.5-4.6 9-1.6 2-1.3 3.6m-53.4-13q-1 2.2.3 2.6 1.8.6 2.5-1 1.4-3.3 0-4.2l-.8.2zm106.8 3.4q-2 1.1-.1 2.3h.8q3-3 1-7.2l-.7-.2q-2.9 1.8-1 2.7 1.2.5.7 1.7a1.5 1-14.2 0 1-.7.7m-82.4 11q1.3-.3 1.7-1.6.1-.4 2.1-3.4l2-3q1.8-3.1 5-5.1 1.1-.7-.3-.7a1.8 1.4-57 0 0-1 .3l-2.5 2-1.4.9q-.9.6-1.2 1.8a2.7 2.6 75.3 0 1-.7 1.3q-3.5 3.3-4.4 7l-.6.9q-3.6 3-5.8 7.3l-.7 1q-.6.9.3 1.4h.8q4.1-4 6-9.5a1 .8.1 0 1 .7-.5m63.9-12.5q-.3 2 1 .5l.8-.6q2.2-1.5-.7-1a1 1-.9 0 0-1.1 1m-62.8 20.5a1.3 1.3 31 0 0 1.6-.4q2.6-3.9 4-8.3 1-3.2 3.8-1.8.4.3.3-.2l-.7-1.7a1.3 1 52.9 0 1 0-1l4-7.6a.3.3-75.9 0 0-.2-.5q-2 0-1.7 2.3a1.5 1.4 62.4 0 1-.3 1l-11 16-.7.6q-1.6.4.9 1.6m-19.7-19.5-.1-.7q-2.2-2-1.8.8l.1 1.1q.2 1.5 1.8-1.2m94.3-.7q-2.6 4.2-3.5 9-.2 1.2 1 2.4l.7.1q1.6-1.2.5-3a3 3-47.7 0 1-.1-2.8q1.3-2.8 2-5.1.2-.3 0-.6-.1-.9-.7 0m-91.7 2.6q-3.7 2.8-6 6.8l-1.5 1.9q-1.2 1.4.5 2.7l.7-.1 5.5-8.1a1.2 1 9.2 0 1 .8-.5q2-.2 1.2-2.2l2-1.4a1 .6-26 0 0 .5-.7q0-.7-1-.8-2.5-.2-2.7 2.4m33.6.2q-1.1 2.1-2.8 3.2a1.3 1.2-11.6 0 0-.5.7q-1 3.5-2.8 6.6-.9 1.4-2.4 2l-.5.7q-.4 3.3-2.3 6a.7.5-54.4 0 0 0 .8q.2.2.7-.5 1.4-2 4.1-3.5a.5.5-33.9 0 0 .2-.8q-.7-.9-.5-1.7.2-.4 1.2-1 1.3-.9 1.6-2.4l.7-2.6q1-1.5 2.6-2.3a1.1 1-8.3 0 0 .6-.8q.7-2.9 2.8-5 .6-.5.5-.9 0-.6-1.7.1a3.1 3 2 0 0-1.5 1.4m50.7-.7q-1.8 2.2-2.4 5l-1.9 7.8a.9.7-61.7 0 0 .2.7q.4.6.5-.3 2.2-5.3 3.6-11l1.6-2.8a.4.4-67.6 0 0-.2-.6q-.6-.2-.9.3zm-91.6 2a1.2 1-41.6 0 0-1.5.2 1.2 1-41.6 0 0-.3 1.5 1.2 1-41.6 0 0 1.5 0 1.2 1-41.6 0 0 .3-1.6m20.5 4.9a.9.6-30.8 0 0-1 0 .9.6-30.8 0 0-.5.9.9.6-30.8 0 0 1 0 .9.6-30.8 0 0 .5-1m29.4 13.1q1.5 1 1.4-.8l-.2-2a1.6 1-40.8 0 1 .3-.9q.9-1.4 1.1-3.4.2-1-.7-.4-2.3 1.6-2.3 4.4l-.2 1.6q-.2 1 .6 1.5m8.5-1.3q2 .6 3.3-2.4a.6.6 9.8 0 0-.6-1q-3.5.3-4.8 2.5a.4.4-67.4 0 0 .2.6l1 .1zm-41.8 4.6a1 1 0 0 0-.4-1.2l-3.8-1.6a1 1 0 0 0-1.2.5 1 1 0 0 0 .5 1.2l3.7 1.6a1 1 0 0 0 1.2-.4m11.6 12.7q-.4-.4-1-.5l-.5.4q-.5 3.3.3 6 .2.9 1.2.8l2 10.3q-.1 3.9 1.2 7.4 1.5 4.4 3.3 6.6 2 2.8 5.6 3.5 2.8.5 5.3-.4 2.8-1 4.5-3.3 3-4.2 3.6-9.4l.5-9.8q.6-10.5-3-20.5a1.9 1-64.4 0 1 0-1v-.7l-.7-.3q-1.9.5-3-.7-2.8-3.3-6.5-3-1-.4-2-.2-5.5.5-8.9 4.6-1.3 1.5-1.3 3.6 0 2 .5 4t-1 2.6m-9.5-12.6q2.8 1.7 6.8.9.8-.2 0-.3l-5.3-1.4-1-.2q-2.6-.2-.5 1m36.8 14.5v.6l.7.3q1.2-.5 0-1zm-27.1 10q-1.5-1-2.2 0a1 1 49.6 0 0 0 1q.7 1.7 2.3-.2a.5.5-52.5 0 0-.1-.8m27 1.4a3.9 3.8-41.7 0 0-.2 2.6q.9 2.9 2 2.4a1 .6 81.8 0 0 .3-.8v-4.5a.8.6-84.3 0 0-.5-.7q-1-.3-1.6 1m-.7 11-1 3.2q-.8 2.4.6 1.4a1.2.8 84.6 0 0 .4-.8q0-.6.6-1.1 1.2-1.4.5-2.7t-1.1 0"/><path fill="#13100e" d="M459.8 236.8q2 1 3 3 .6.9.2 1.5-.4 1-2 .4a2 .7 14.5 0 1-1.6-1V237a.3.3-76.5 0 1 .4-.3"/><path fill="#6a5133" d="M467.7 238.3q.1.5.8.7-1.2 1.5-1.6 3.3l.3.7q1 .4 2 .3-1.3 1.2-3.2 1.2.5-1.1 0-2a1 .7 52 0 1 0-1z"/><path fill="#443e38" d="M372.2 241.2q3 2 5.5-.2a1 1 48.1 0 1 1 0q1 1.3 1.4 2.5.2.5-.2 2.6-.2 1.3.2 2.7l-.2.8q-1.3 1.2-3.2 1.7-1 .3-.4-.6 1.6-2 .2-2.4a.8.8 32.7 0 1-.3-1.4q2.2-2 1.4-3.3l-.8-.2q-2 .6-3 2.2l-1.7 2.4q-1.3.7-2.8.5-.5 0 0-.3 2.1-1.4 3.5-3.3 1.9-2.6-1.3-3.3-5.9-1.2-10.5 1.6-6.2 3.8-12.3 7.8-1.4.8-3 .7-1.9-.1-3.5 2-.9 1.2-3.2 1.9l-5.7 1.7q-3.5 1.1-4.9.3-1.6-1.1 3-.6l1.1-.2 5.7-1.8.9-.4q2.6-2.3 6-3.5 3.2-1.2 6-3.2l2.8-2q1.6-1.4 3.5-2 2.4-1 3.6-1.7 3.5-2 7.6-2.3l.8-.4q2.4-2.2 2.4 1z"/><path fill="#3b3732" d="M315.8 244.3q1.4 1.4 3.2.7v4.5q-3.6.9-2.5-2 .6-1.5-1.2-2 .5-.5.5-1.2"/><ellipse fill="#25211c" rx="1.1" ry=".5" transform="rotate(-40.7 515.6 -366)"/><ellipse fill="#443e38" rx="1.6" ry="1.5" transform="rotate(32 -328 503)"/><path fill="#443e38" d="M362.7 250.7q-1.5 2.3-2.2 5-.3.8 0 1.6l.6 1.5a.2.2-18.4 0 1-.2.4q-1.5.3-2.2-.1a.8.6-72.4 0 1-.4-.8q.8-3.8 2.4-6.6.6-1 1.8-1.3.5-.2.2.3"/><ellipse fill="#25211c" rx="1.2" ry=".8" transform="rotate(59.7 -34.8 450.5)"/><path fill="#2c2925" d="M379.6 253.7q-.5 1.6-1.8 1.5-1.2 0-.5-1 1-1.7 2-1.2z"/><path fill="#3b3732" d="M317.5 253.3q1.2.4 2.5.4 0 2.4 1.5 4-1.8.8-3-1.3l-.8-1.2q-2-2.2-.2-2"/><ellipse fill="#25211c" rx="2.2" ry=".9" transform="rotate(106.8 116.5 285)"/><path fill="#3b3732" d="M218.2 254.7q1.7 1.4-.3 2.4a1 1 45.7 0 1-.9 0q-3.8-2.2.3-2.6a1 1-26.1 0 1 1 .2"/><ellipse fill="#25211c" rx="2.8" ry=".9" transform="rotate(130.2 126.8 214.8)"/><path fill="#25211c" d="M351.4 255.1q2.2 1.6.1 1.7l-1 .2q-1.3.5-1.7-.7a1 1 80.6 0 0-1-.8q-3.3 0 2.6-.6a1 1 59.3 0 1 1 .2"/><path fill="#090706" d="M167.8 259.2q2.2 1 3 2.3.3.5.7.7 4.3 3 7.9 6.7 1.9 2-.6 2.2l-.6.4q-.4 1.6.9 2.6l.6.6q1.2 1.3.9-.7a1.8 1 66.3 0 1 .1-1q.7-1.3 1.8-.4.5.4 1 1.3 3.2 6.3 4.6 13.3a1.3 1.1-37.5 0 1-.2.9q-1.5 2.2 0 4.3a1.6 1.3 32.6 0 1 .3.9q-.3 6.2-3.4 11.5a2 1.7 62.8 0 0-.3 1q.1 3.7-2.2 6.8-1.8 2.3-3.4 4.8-.7 1.1-7 5.9-3.2 2.3-6.4 3.3-7.2 2-14.8 2-.5 0-1 .3-2.3 1.3-5.2.9-6.2.4-12-1.9-4-1.5-8.2-4.8-3-2.4-6.5-6.7-5.7-7.2-5.7-7.5-1-2.8-.4-5.7l-.1-1q-1-2.7-1-5.6 0-1.5.4-4.6 1.6-11.2 7.4-20.8 1.7-2.8 8.5-7.5 2.7-3.7 7-5 4.9-1.5 9.9-2 6.7-.6 9.9-.6 7 0 14.1 3m-33.3 4.6q-1.8.6-2.7 2.2-8.8 6.6-11.8 17.3l-1 3.2q-1.7 2.2-1 5l-1.8 8.8q-.8 1.3-.4 2.7.2.5 0 1-.5 2.3 2.2 1.5.7.5 0 1.4a2 2 45.7 0 0 0 1.7l5.5 8a1.4 1.1 73.9 0 0 .8.4l1.8.4.6.5q.8 1.9 2.3 3l3 2.2q3 2 6.6 2h2.3q1.5.2 3.8-.4 2.2-.4 4.9 1.3a.4.3-66.3 0 0 .5-.2q.4-1.4 2.2-1.3 5.3.4 11.3-2.5.4-.2 1-.2 2 0 3.3-2 .5-.6 1.1-1 6.7-4.6 9.3-11.7l1.5-4.1 2.6-6.8q.2-.5.1-1.5l-.8-6.4a1.6.6-87.8 0 0-.3-1q-.7-.8-1.2-1.8-.3-3.3-2.2-6a1.8 1.5-67 0 1-.2-1q0-1.6-1.1-2.7v-.7q.3-.4.2-1 0-.4-.7-1l-4-3.1q-2.6-1.3-2-4.3a.7.5-79.1 0 0-.4-.7l-1.2-.3a1.5.6 4.8 0 1-.8-.4q-.8-1-2-.5-7.8-3.8-18.4-2.9-8.3.7-13 2.9m47.4 19.5a1 1 19 0 0 1.6-.7q.6-3.4-1.7-1.3-1.3 1.2.1 2"/><path fill="#25211c" d="M275.8 257q.1 2-.4 3.8v1.4q.1 2-1 1.2-.6-.3-1-1l-1-1.6a.3.3 70.6 0 1 .2-.5q1.3-.2 1.3-.8l-.6-.4q-2.2.6-2.6-1.8zm80.5 1.5 1 2.5q-2.9 1.8-3.3 5.3-1.3-1.3-3.2-.8 1.8-1.1 1.2-3.3 1.7-1.1 2.8-2.8a1.2 1 57 0 0 0-.9q-.5-2 1-.8a1.5.4 75.5 0 1 .5.8"/><ellipse fill="#25211c" rx="1.1" ry=".5" transform="rotate(136.2 121.6 199.2)"/><path fill="#25211c" d="M325.7 258.8q.6 1.3-.5 1.7a1 1 58.7 0 1-.9-.3q-1.2-1.3.6-1.8a1 1-20.1 0 1 .8.4"/><ellipse fill="#25211c" rx="1" ry=".6" transform="rotate(54.5 -69.1 483.9)"/><ellipse fill="#13100e" rx="2.1" ry="1" transform="rotate(129.4 149.8 230.9)"/><ellipse fill="#25211c" rx=".8" ry=".6" transform="rotate(25.8 -430.1 738.4)"/><ellipse fill="#3a3630" rx=".6" ry=".5" transform="rotate(74.8 -28.1 316.9)"/><path fill="#312f2a" d="M301.3 260.3h.4q.3 2.7 1.8 5 0 1.2 1 2.2l-2.3 1.1a.9.7 49.7 0 1-.8-.2q-1.7-1.4-.3-3.1a1.4.9 74.8 0 0 .2-.9z"/><path fill="#25211c" d="M311.4 261.3q-.8 3-3.6 1.6a.8.8 37.5 0 1-.2-1.4q1.2-1 3.2-1a.6.6 8.3 0 1 .6.8"/><ellipse fill="#2c2925" rx="2.2" ry=".6" transform="rotate(-34 587.7 -391.4)"/><path fill="#443e38" d="M345.3 260.4q1.3.4 1.6 1.8a1.1.9-31.8 0 1-.3.8q-2.3 2.4-2.6 5.5 0 1.2 1 .6 1.7-1.2 2.8-3 1.5-2.7 4.2-3.9.6 2.2-1.2 3.3-3.3.9-3.9 2.7-.4 1.7-2.7 1.8a1 1 8.6 0 0-.7.6q-.6 1.5-1.5 2.7-1 1.5.3 2.9.3.3-.2.4-1.6.4-2.1 1.6l-.7-.2.5-3.7a1.7.9 85.6 0 1 .4-.8q1.5-1.6 2.2-3.7l1.2-4q1-2.4 1.2-5a.4.4-79.9 0 1 .5-.4"/><path fill="#f7efd6" d="M165.8 263.8q.4 1.3-.6 2.4-1.9-.1-3.4-1.4t-2.8.2l-2.2-.5q-5.5-1.1-10.8.5l-2.7-1q-2.5.4-4.3 2.3l-6.2 3.5q-2.7.2-3.8 2.4l-2.5 3q-1.5 2.9-2.5 6-.8 2.3-2.5 3.8-1.4-.2-1.5-1.7 3-10.7 11.8-17.3 3.6 2.1 2.7-2.2 4.6-2.2 13-2.9 10.5-.9 18.3 2.9"/><path fill="#25211c" d="M368.5 261.2q.3.9.1 1.8a.9.7-6.1 0 1-.6.6q-1 .3-1.5 1.1-.4.7-1 .7t0-.6q.9-1.1 1.2-3.1.2-1.1 1.1-1a.8.7 81.1 0 1 .7.4"/><path fill="#524c41" d="m357.2 261 4.2 3.6a1.2 1-25.2 0 0 .9.3l1.2.2q.4.2 0 .5l-2.6 1.8q-.4.3-.2-.1.9-3.5-3-3.6a1 1 17.1 0 0-.8.4q-1 1.5-1.2 3.3a1.1 1 80.3 0 1-.4.8q-2 1.3-1.3-2 .4-3.4 3.2-5.2"/><path fill="#605449" d="M335.2 261.9q0 .2-.6.5-2.6 1-4 3.4l-2.2 4q-1 1.8-1.7 4.2-2.2 7.1-5.5 11.4-1.1 1.5-1.6 0l.2-.8q3.3-4.5 5.1-9.9 2-5.6 5.8-10.3 1-2.6 3.8-2.8a.6.3-3 0 1 .6.3"/><ellipse fill="#25211c" rx="1" ry=".7" transform="rotate(119.5 105.4 237.4)"/><path fill="#312f2a" d="M375.4 263.2q-.7 2.5-3 4-.3.3-.2-.2l1.4-3.8q.5-1.4 1.5-.8z"/><path fill="#524c41" d="M288 263.5q-1.5 2.3-4 .2-1.1-1-1.8.4l-.6.6q-2.7 1-1.1 3.4a1 1 43.8 0 1 0 .9q-.9 1.7-3.2 3.3-1.7 1.1-.6 2.8 2.6 3.8 4.8-.7a1.3 1 57.6 0 0 0-.9q-.2-1 .6-1.6l1-.6 1.3-1a1 .7-42.7 0 1 .9 0q.5.3-.2 1.1-2.8 3.7-6.2 6.8a.8.7 60.3 0 0-.1.8q.5 1.6-.8 2.8-1.7 1.5-2.4 3.6-.7 2.3-1.2 3.1-.9 1.4-2 2.7-.8 1-1.6 1.1-1 .2-1.7-.4a.4.4-39.6 0 1 0-.6q1.5-.9 2.3-2.4 2.7-5 6.3-9.5 1.8-2.3-1.3-3a1 1-61.4 0 0-1 .3q-4 4.3-6.5 8.8-1 1.9-2.1 2.2-1.9.6-3-1.8a.4.3-15.4 0 1 .2-.4q3.5-.3 4.9-3.7.3-1 1.1-1.5l1.4-1.2q1.3-1.7 2.4-4.1 1.6-3.8 5.5-5.6.6-.2.7-.5.2-.3.1-.6a1 .7 7.9 0 0-.6-.7l-3.2-1-.6.5q-.2.5-.7.7l-.7-.3q-2.4-3.2-6-.7-.9.6-.3-.2 1.4-2 3.4-1.6l2.8.6q1.5 0 3.6.3 1.9.2 2-1.7 0-2 2-1.4h1q2.5-.7 5 .1a.4.4 24.2 0 1 .1.6"/><ellipse fill="#312f2a" rx="1.2" ry=".9" transform="rotate(-30.3 672.8 -552.4)"/><path fill="#89634b" d="m168.6 264.7 1.2.3a.7.5-79.1 0 1 .3.7q-.5 3 2.2 4.3-.5 1.2-1.8 1-1.3 0-1.6 1l.4.4q1.7.2 1.3 1.6a1.7.7-28.2 0 1-.6.7q-1 .9-1 2-.2 1.7-.4 2-.6.9-2.1.6-2.8-1.7-4 1.2l.3.6q.8.5.7 1.2a1.4.7-25.5 0 1-.6.8q-2 1.3 0 2.6l.5.7q.4 2.3 2.7 3.4a.7.7 19.4 0 0 1-.5q.4-1.7-.6-3.5-.4-.8.5-.6 2.5.8 3.4-1.4l.6-.3q1.8 1 1.4 3a1 1-7.5 0 1-.6.7q-2.7 1-4.5 3.3-1-.5-1.8.5-1.7-2.9-4.8-4.2 1.5-3-.7-2l-1-2.6q-.7-2.1.8-.4.6.7 1.4 1a.3.3-84.2 0 0 .4-.4q-.3-2.3 1.1-4.2a1 1-36 0 0 .2-1q-.4-1.2-.4-2.4 0-1-.6-.8a1.1.7-87.4 0 0-.5.7q-.3 1.5-1.5 2.3-.5.2-.7.6-1.4 2-.8-.7 0-.4.4-.7 2.8-3.2 5.2-6.7a1.1.8 9.7 0 1 .8-.4q.9-.1 1-1l.4-.8q.8-1.3-1-1 1-1.2.6-2.5 1.2-.6 2 .5a1.5.6 4.8 0 0 .8.4m-3.5 9.7q-1.8 2.8.2 3 1.1 0 1.8-.7 1-1-.5-2.5a1 1 38.8 0 0-1.5.2"/><path fill="#605449" d="M294.3 264.2q1.4.8 2.8 0a1.3 1-43.3 0 1 .9 0q1.7.5 0 1.3t-4.5.2l-.6.3q-1.6 4.8-1.6-1 0-2.4 3-.8"/><path fill="#af6c54" d="M134.5 263.8q1 4.3-2.7 2.2 1-1.6 2.7-2.2"/><path fill="#685b4f" d="M338.6 264.3q.8 2.4-.4 4.8l-.7.3q-1.7-.2-1.4 1.4a1.9 1.2 59.6 0 1 0 1l-3.1 8.4q-1.3.4-1.8-.7l3.2-8.3a1.9.9 66.6 0 0 0-1q-.4-2.1 1-3.9l.4-.8q.5-1.6 2.1-1.7z"/><path fill="#443e38" d="M143.3 264q-1.7.8-2 2.3-.4 1.6-1 2.8l-1.2 2.6q-1.4 3.9-5.2 5.8a1.6.8 21.4 0 1-.9.1q-.8-.2-1.1.8-.7 2.2-3-.6a1 1 38.1 0 0-1.7.2q-2.4 5.2-3.9 9.7-1 3.3-3.2 6a.4.4-42.6 0 1-.7 0q-.5-1-.2-2 2.2-1.8 2-4.7l.3-2q1.7-1.5 2.5-3.8 1-3.1 2.5-6 2.5-1 4.2 1l.8.3 2.8-.4.8-.5q3.5-4 3.9-9.4 1.8-1.8 4.3-2.2"/><path fill="#c27c67" d="m143.3 264 2.7 1q.8.9 2 .8a.7.5-5.8 0 1 .7.4q.1.5-.3 1-1.1 1.2-.9 2.8-.8 2.5-3.1 3.7a1.7 1.4-4.2 0 0-.7.7q-3.5 6.5-6.8 13.3-1 5.7-4.6 10.1a1 1 18 0 1-.9.3q-1.5 0-1.4 1.4l1.2 3a.2.2 53.5 0 0 .4 0l1.2-1.5q.2-.8.1-1.7a1.2 1 65.4 0 1 .2-.9q2.1-2.4 3.4-5.4l5.3-11 1.6-2.5q.8-1.4 1-3 1.4-2.7 3.6-4.8l5 .9a.4.3 89.9 0 0 .3-.4q-.3-2.3 1.3-4a1.9 1.3-26.3 0 0 .5-.8q.4-2.1-1.4-.2-2.3 1.3-4.1 3.2a1.1 1-67.7 0 1-.8.4h-.5q0-.5-.3-.8 1.3-4 5.5-5a2 1 33.9 0 1 1 .2q1.4.5 2.3-.7l2.2.5q.9 3.1-1.4 5.6-1.7 1.7-2.4 4-.2.8.3 1l.7-.3 5.3-8.3q.4-1 .3-2.2 1.5 1.3 3.4 1.4 1.8-.2 1 1l-.3 1q-.2.8-1 .9a1.1.8 9.7 0 0-.9.4q-2.4 3.5-5.2 6.7-.3.3-.4.7-.6 2.7.8.7.2-.4.7-.7 1.2-.7 1.5-2.2a1.1.7-87.4 0 1 .5-.7q.6-.2.6.8 0 1.2.3 2.5l-.1.8q-1.4 2-1 4.3a.3.3-84.2 0 1-.5.4q-.8-.3-1.4-1-1.6-1.7-.7.4l1 2.6q-9.6 15.5-15.3 33-.5 1.4-2.3 1.7-.6.1 0 .4 4 1.7 8 1.4 3.3-.3 4.8-4.3a1.3 1 48.3 0 0 0-.9q-.7-1.5 0-2.6l1.1-1.6q5-11 10.9-21.4 1.8-2.2 4.5-3.3a1 1-7.5 0 0 .6-.7q.4-2-1.4-3l-.6.3q-.9 2.1-3.4 1.4-1-.2-.5.6 1 1.8.6 3.5a.7.7 19.4 0 1-1 .5q-2.3-1.2-2.7-3.4l-.5-.7q-2-1.3 0-2.6a1.4.7-25.5 0 0 .6-.8q.1-.7-.7-1.2l-.3-.6q1.2-3 4-1.2.3 1.2 1.4 1.9l.8-.1q1.7-2 2.7-4.5.7-1.5 2.2-1.6a.4.4 75.7 0 0 .3-.5q-1.2-2.9-3.4-3.5 1.3.2 1.8-1l3.9 3.2q.6.5.7 1t-.2.9v.7q1 1.1 1 2.7a1.8 1.5-67 0 0 .3 1q1.9 2.7 2.3 6 .4 1 1.1 1.9a1.6.6-87.8 0 1 .3.9l.8 6.4v1.5l-2.7 6.8-1.5 4q-2.6 7.2-9.3 11.7-.6.5-1 1.1-1.4 2-3.4 2-.6 0-1 .2-6 2.9-11.3 2.5-1.8-.1-2.2 1.3a.4.3-66.3 0 1-.5.2q-2.7-1.7-4.8-1.2-2.4.5-4 .4l-2.2-.1q-3.6 0-6.6-2l-3-2.1q-1.5-1.2-2.3-3l-.6-.6-1.8-.3a1.4 1.1 73.9 0 1-.8-.6l-5.4-7.9a2 2 45.7 0 1 0-1.7q.6-.9-.1-1.4-2.3-1.6-.7-3.7.9-1.3-1-1.6l1.7-8.7q.5.4 1.2.3-.3 1 .2 1.8a.4.4-42.6 0 0 .7 0q2.1-2.6 3.2-5.9 1.5-4.5 4-9.7a1 1 38.1 0 1 1.6-.2q2.3 2.8 3 .6.3-1 1.1-.8a1.6.8 21.4 0 0 1 0q3.7-2 5.1-5.9l1.2-2.6q.6-1.2 1-2.9.3-1.4 2-2.2m31.5 18.4q2 .7 2.4-.7l.2-1.4q0-1.1-.9-1.1-.7 0-1.3.6-.6.8-.8 2zm-27 .8q-1.7.2-2.5 1.8-.3.4.2.3 1.8-.8 2.5-.8 2.4-.1.7-1.1zm29 6.3-2.1-.7a.9.6 27 0 0-.8 0q-1 1-1.9 2.2l-2 2q-1.5 1.3-1.1 3.5l-.1 1-.3 1.3q-2.9 5.8-6 11.5-1.3 7.4.5.7l.2-.4q3.8-4.3 6.1-9.5.3-.7 0-2.6-.2-4.1 4.4-4.6.7 0 0-.4-1.4-1 .4-2.7a.7.7 59 0 1 1.1.3q.4 1.4 1 2.7 1.4 2.6-1.2 3a1.6 1.2 12.7 0 0-.9.3q-1.7 1.8.8 1.2.5 0 1-.4 3-2 1.6 1.6-6 6.5-8.8 14.3-.8 2.5.7.4 4.9-6.5 8.1-14 2-4.5-.7-9-.5-.9.4-1.4 2-1 1.5-3.2l-.3-1.3q-.2-2.2-1.4-.7a1 1 59.9 0 0 0 .9q.5 2-.2 4m-48.5-1.8q1.2-.3 1.4-1.6.6-2.7-1.4-1.6-.6.4-1 1.1-1.2 2.7-1.5 4.6-.2 1 .4 1a1 .8-63 0 0 .8-.4q.9-1 .8-2.5zm12.7.7a.5.5 23.1 0 0 .7-.3l.9-2.6-.3-.7q-.4 0-.6.7a2 2-11.6 0 1-.7 1.2q-1.5.9 0 1.7m12.2-3.1a.3.3 0 0 0-.2-.4l-.5-.3a.3.3 0 0 0-.4.2l-9.9 19.9.2.3.5.3.4-.1zM139 300.6a2.4 1 47.2 0 0-.9-2.5 2.4 1 47.2 0 0-2.3-1 2.4 1 47.2 0 0 .8 2.4 2.4 1 47.2 0 0 2.4 1m-18.5-1.6q-.3-.5-.8-.6l-.7.4q-.7 1.6.5 2.9l2 2.2q1 1.1.5-.3-.4-1.1 0-2.1.3-.6 1.4-1.3 1.8-1.1 2-2.1.5-1.5-.7-.3-1.4 1.7-3.5 1.7a1 .7 69.5 0 1-.7-.5m10.4 6.7q-4.3-1.9-6.3 1.7-1.7 3-2.8 3.8l-.2.2v.4a.4.3-32.1 0 0 .6 0q2.2-1.6 3.6.6a1.1.6 64.3 0 0 .8.5h1.3a1.4.4-8.1 0 1 .9.1q1.5 1 .5-.5a1 .8-13.6 0 0-.7-.4q-2.1 0-3.6-1.5a.7.5-54 0 1 0-.7l2-3.4.6-.3q4.4 2.2 5.6-2.1.2-.6-.3-.3-1 .6-1.4 1.7zm10.9 3.9q2.8.4.8-1.3l-.5-.9q-.7-3.2-.7 1.8a.4.4-86.9 0 0 .4.4m-9 8.2q.3 1.3-.7.4-1.3-1.2-2-1-.4 0 0 .5l3.5 2.6q.7.5.3-.2-1.7-3.9 1-5.4l.3-.7q-.1-.7.2-1.2.5-2.8-.7-.6l-.3.4q-2.4 2.3-1.7 5.2"/><path fill="#6a5133" d="M156.8 264.5q-1 1.2-2.4.7a2 1 33.9 0 0-.9-.1q-4.2.8-5.5 4.9h-.5q-.2-1.6.9-2.9.4-.4.3-.9a.7.5-5.8 0 0-.7-.4q-1.2 0-2-.8 5.3-1.6 10.8-.5"/><path fill="#524c41" d="M161.8 264.8q.1 1.1-.3 2.2l-5.3 8.3-.7.3q-.5-.2-.3-1 .7-2.3 2.4-4 2.3-2.5 1.4-5.6 1.3-1.4 2.8-.2"/><path fill="#83786e" d="M324.1 264.7q-2.3 2.8-3.8 6.1-1 2.4-2.4 4.3-1.8 2.4-3 5.1-.4.4-1.1.3-.2-1.7 1.3-3.7 2.5-3.4 4.6-8.9 1-2.8 4.2-3.5.5-.1.2.3"/><path fill="#090706" d="M263.2 265q1.4.8 0 4-.7 1.7-2.5 1.1-1.3-.4-.3-2.7l2-2.3z"/><path fill="#716257" d="M310.4 264.8a2.3 1.6 62.8 0 1 1.6.8q1.9 2.3 3.3.3a1 .7-67.9 0 1 .7-.4q1.1 0-.1.9-2.5 1.6-3.6 4.4l-2.8 6q-.5 1.2-2.1 3.4-1.2 1.7-1.9 3.7-1 2.9-3 5-1.5 1.5-.7-.4 2.4-6.3 6.2-12 1.3-3.8 3.5-7a1.2 1-39.2 0 0 .1-1q-.8-3-4-1.8-2 .8-3.1.8-1-1-1-2.2z"/><path fill="#25211c" d="M368.9 266q2 4.2-1 7.2h-.8q-1.8-1.2.1-2.3a1.5 1-14.2 0 0 .7-.7q.5-1.2-.6-1.7-2-1 .9-2.7z"/><path fill="#af6c54" d="M139 266.3q-.4 5.3-4 9.3l-.7.5-2.8.3-.8-.3q-1.7-1.8-4.2-.9l2.5-3q-.1 2.6.6.8 0-.3.3-.5 1.5-1.3 2.8-2.7z"/><path fill="#685b4f" d="M154.6 268.3q-1.6 1.6-1.3 3.9a.4.3 89.9 0 1-.4.4l-4.9-.9q.3-.4.3-1h.5a1.1 1-67.7 0 0 .8-.3q1.8-2 4-3.2 1.9-2 1.5.2a1.9 1.3-26.3 0 1-.5.9"/><path fill="#524c41" d="M295.3 268q1.4 0 .3.8-3.2 2-5 5l-2 3.1q-2 3-2.1 3.4-.4 1.3-1.7 1.7a1 .8.1 0 0-.7.5q-1.9 5.4-6 9.4l-.8.1q-1-.5-.3-1.4l.7-1q2.2-4.3 5.9-7.4l.4-.7q1-3.8 4.5-7a2.7 2.6 75.3 0 0 .7-1.4q.3-1.2 1.2-1.8l1.4-1 2.6-2a1.8 1.4-57 0 1 .9-.2"/><path fill="#25211c" d="M349.8 270q-1.4 1.4-1.1-.6a1.3 1.3-.9 0 1 1-1.2q3-.4.8 1.1z"/><path fill="#685b4f" d="m299 268.9-4 7.7a1.3 1 52.9 0 0 0 .9l.6 1.7q.1.5-.4.2-2.8-1.4-3.7 1.8-1.4 4.4-4 8.3a1.3 1.3 31 0 1-1.6.4q-2.5-1.2-1-1.6l.8-.5 11-16.2a1.5 1.4 62.4 0 0 .3-.9q-.2-2.2 1.7-2.3a.3.3-75.9 0 1 .3.5"/><path fill="#25211c" d="m266 269.7.2.7q-1.6 2.7-1.8 1.2v-1q-.5-2.8 1.7-.9"/><path fill="#524c41" d="M361.2 270.3q-.8 2.3-2.1 5.1a3 3-47.7 0 0 .1 2.8q1 1.8-.5 3h-.8q-1.1-1.3-.9-2.4.9-4.9 3.4-9.1.6-.9.8 0z"/><path fill="#716257" d="m132.8 269.8-2.9 2.7-.3.4q-.7 1.9-.6-.6 1.2-2.3 3.8-2.5"/><path fill="#443e38" d="M271.6 270q1 0 1 .7a1 .6-26 0 1-.6.7l-2 1.4q-.4-.8-1.2-.6.2-2.5 2.8-2.3"/><path fill="#2c2925" d="M147.5 270h.5q.3.3.3.8t-.3 1q-2.2 2-3.6 4.6-.2 1.7-1 3l-1.6 2.7-5.3 10.9q-1.3 3-3.4 5.4a1.2 1 65.4 0 0-.2 1q.1.8-.2 1.6-.6-2.6-2.7-1.5-.1-1.4 1.4-1.4a1 1 18 0 0 .9-.3q3.6-4.4 4.6-10.1 3.3-6.8 6.8-13.3a1.7 1.4-4.2 0 1 .7-.7q2.3-1.2 3.1-3.7"/><path fill="#716257" d="M305.1 272q-2.1 2-2.8 5a1.1 1-8.3 0 1-.6.7q-1.6.8-2.6 2.3l-.7 2.6q-.3 1.5-1.6 2.3-1 .7-1.2 1-.2 1 .5 1.8a.5.5-33.9 0 1-.2.8q-2.7 1.5-4.1 3.5-.5.7-.7.5a.7.5-54.4 0 1 0-.8q2-2.7 2.3-6l.5-.7q1.5-.6 2.4-2 1.9-3 2.8-6.6a1.3 1.2-11.6 0 1 .5-.7q1.7-1 2.8-3.2a3.1 3 2 0 1 1.5-1.4q1.6-.7 1.8 0 0 .3-.6.8"/><path fill="#6e6053" d="M354.8 271.2 353 274q-1.4 5.6-3.6 10.9-.1.9-.5.3a.9.7-61.7 0 1-.2-.7q.9-4 2-7.9.5-2.7 2.3-4.9l.5-.9q.3-.5 1-.3a.4.4-67.6 0 1 .1.6"/><path fill="#443e38" d="M170.5 271q2.2.6 3.4 3.5a.4.4 75.7 0 1-.3.5q-1.5.1-2.2 1.6-1 2.5-2.7 4.5l-.8.1q-1-.7-1.4-2 1.5.4 2.1-.6.2-.2.3-1.8.2-1.2 1.1-2a1.7.7-28.2 0 0 .6-.8q.4-1.4-1.3-1.6l-.4-.4q.3-1 1.6-1"/><path fill="#83786e" d="M268.8 272.3q.8-.3 1.2.4.7 2.1-1.2 2.3a1.2 1 9.2 0 0-.8.5l-5.5 8-.7.2q-1.7-1.3-.5-2.7l1.5-1.9q2.3-4 6-6.9"/><ellipse fill="#25211c" rx=".9" ry=".7" transform="rotate(56.9 -143.6 339)"/><ellipse fill="#312f2a" rx="1.2" ry="1" transform="rotate(-41.6 491.9 -205.7)"/><path fill="#c27c67" d="M166.6 274.2q1.4 1.4.5 2.5-.7.8-1.8.7-2-.2-.2-3a1 1 38.8 0 1 1.5-.2"/><path fill="#25211c" d="M221.1 278.1q1.3 2.3-.4 2.1a1 1 7 0 1-1-1.1q.5-2.6 1.4-1"/><path fill="#716257" d="M339.3 278q.3 0 .7.3.5 1.3-.5 3.6a2 2 41.7 0 0 .1 2q1 1.7-1 2.4-2.8 1-1.7-1.1 1-1.8.7-3.2v-1q.5-1.7 1.6-3"/><ellipse fill="#443e38" rx=".9" ry=".6" transform="rotate(-30.8 647.3 -371)"/><path fill="#443e38" d="M176.5 279.2q1 0 .9 1.1l-.2 1.4q-.3 1.4-2.3.8l-.5-.7q.2-1.2.8-2 .6-.7 1.3-.6m154.7.3q.5 1 1.8.8l-2.4 9q-1.4 2.3-2.2.3-.2-.7 0-1.6.7-4.5 2.8-8.5m-16.2.8q-.6 3-1.2.2.6.1 1.2-.2"/><path fill="#3a3630" d="M183.5 282.6a1 1 19 0 1-1.6.7q-1.4-.8-.1-2 2.3-2.1 1.7 1.3"/><path fill="#f7efd6" d="M368.5 282.5q-8.8 6.6-18.7 11.4-1 .6-6.1 2.4-3.1 1.2-6 2.9-2.1 1.2-1-1.7a3.4 1.2-27.8 0 1 1.4-1.5l3.1-2.2 17-6.9q2.4-1 4.6-2.7 2.7-.4 4.4-2.3 1.2-1.2 1.6-.2z"/><path fill="#3b3732" d="M218.3 283q-.5 1.2.3 1.8l1 .8q.9.8 1.4 2a1.3.7 74 0 0 .7.6q.7.2.9-.9.2-1.7 1.6-1.2l.4.7q-.3 1.5-1.8 1.9a1.7.7-58.4 0 0-.7.6l-1.6 1.7a.7.4-44.7 0 0-.2.8l.7 1q.7 7.3 3.4 14 1.9 4.7 6.3 12.9 6 11 15.1 20.7 12.3 13.4 27.1 22 8.7 5 9 5 4.6 2.3 10.1 2.3 7.7.1 15.2 1.5 2 .3 3.5 1 2 .7 3.4 1.5 2 1.2 4 .4 5.5-1.8 10.1-.4-1.5.1-2.1 1.6-.7 3.2-2.4 5.9-1.2 2-.5 3.5a.3.3 76 0 1-.3.5q-1.1 0-1.7 1-1.2.4-2.3-.2-.5-.3-.9-.3l-5.2-1q-21.6-1.4-23.3-1.7-5.2-.8-10-2.7-3.6-.7-6.3-3-4.5-2-8.5-4.9l-6.6-4.6q-10.9-7.3-20-16.6-2.8-2.2-6-3.7l-.4-.7q-.3-2.7-2-5.2-1.6-2.3-3-5.2-.9-2-2-5.6-3.3-11.2-8.5-21.7-2.1-5.8-3-11.9-1-3.8-.7-9.4.2-3.3 2.7-4.1a1 .8 49.8 0 1 .9.2q1 .8 1.3-.7.3-.8.8-.2"/><path fill="#af6c54" d="M148.7 283.4q1.7 1-.7 1.1-.7 0-2.5.8-.5.1-.2-.3.8-1.6 2.6-1.8z"/><path fill="#b8b599" d="M120 283.3q0 1.4 1.5 1.7l-.3 2q-1-.8-2.2-.5z"/><path fill="#524c41" d="M178.7 286.7q.5 2-1.4 3l-.6-.2q.8-2 .2-4a1 1 59.9 0 1 .1-1q1.2-1.4 1.4.8zm-48.9-.7q-.3 1.4-1.5 1.7l-.5.6q0 1.4-.8 2.5a1 .8-63 0 1-.8.4q-.6 0-.5-1 .4-1.9 1.6-4.6.4-.7 1-1.1 2-1.1 1.4 1.6"/><path fill="#2c2925" d="m160.7 286.8-2.9 4.3q-2.2 5.9-5.2 11.5-3.4 7.8-6.1 15.3-.9 2.3 1.6 2.8 4.5 1 4.5-3.1a1.9 1.7 62.4 0 1 .2-1q1.3-2.1 1-4.5a1 1-19.7 0 1 .4-.8q1.1-.7 1.6-2 3-6.3 5.7-12.8 2.1-2.7 4-5.5.7-1 1.8-.5-6 10.4-10.9 21.4l-1 1.6q-.8 1.1-.2 2.6a1.3 1 48.3 0 1 0 1q-1.4 3.9-4.7 4.1-4 .4-8-1.3-.6-.2 0-.4 1.8-.3 2.3-1.8 5.7-17.4 15.2-33 2.2-1 .7 2"/><path fill="#312f2a" d="M313.3 284.3q.9-.6.7.4-.2 2-1.1 3.4a1.6 1-40.8 0 0-.3 1l.1 1.9q.2 1.9-1.3.8-.8-.6-.6-1.6l.2-1.5q0-2.8 2.3-4.4"/><path fill="#3b3732" d="M260.4 285.7q-.3 1.5-2.1 1.6l-.3-.6q-.1-3.1 2-1.7a.8.7 22.9 0 1 .4.7"/><path fill="#685b4f" d="m142.6 285.6-.9 2.5a.5.5 23.1 0 1-.7.3q-1.5-.8 0-1.7a2 2-11.6 0 0 .8-1.2q.1-.8.5-.7z"/><rect width="1.2" height="22.7" x="-.6" y="-11.4" fill="#2c2925" rx=".3" transform="rotate(26.4 -555 462.3)"/><path fill="#f7efd6" d="M119 286.5q1.3-.3 2.2.5.2 2.9-2 4.8-.7.1-1.2-.3-.7-2.8 1-5"/><path fill="#c77f6d" d="M160.7 286.8q3 1.3 4.8 4.2-1.9 2.8-4 5.5-2.7 6.5-5.7 12.8-.5 1.3-1.6 2l-.3.8q.2 2.4-1 4.5a1.9 1.7 62.4 0 0-.3 1q0 4-4.5 3-2.5-.4-1.6-2.7 2.7-7.5 6-15.3 3-5.6 5.3-11.5zm-1.8 7q3.5 1 .3-.6a.4.4 23.2 0 0-.6.2q-.1.3.3.5"/><path fill="#524c41" d="M323.2 288q-1.3 3.1-3.3 2.5l-1-.2-1-.1a.4.4-67.4 0 1-.1-.6q1.3-2.2 4.8-2.4a.6.6 9.8 0 1 .6.9"/><path fill="#89634b" d="m174.7 288.8 2 .7.6.3q-1 .5-.5 1.4 2.6 4.5.7 9v-.7q1.4-3.6-1.6-1.6l-1 .4q-2.5.6-.8-1.2a1.6 1.2 12.7 0 1 .9-.4q2.6-.3 1.3-3-.7-1.2-1.1-2.6a.7.7 59 0 0-1.1-.3q-1.8 1.8-.3 2.7.6.4-.1.4-4.6.5-4.5 4.6-.3.3-.7.3l.3-1.4.1-.9q-.4-2.2 1.1-3.5l2-2 1.9-2.1a.9.6 27 0 1 .8-.1"/><rect width="5.9" height="1.9" x="-2.9" y="-.9" fill="#524c41" rx=".9" transform="rotate(23.4 -572 812)"/><path fill="#89634b" d="M159.2 293.2q3.2 1.6-.3.7-.4-.2-.3-.5a.4.4 23.2 0 1 .6-.2"/><path fill="#cf492a" d="m300.5 293-.8 3q-1 2.9 2 4.1a1 1 1.4 0 1 .7.7q1.1 3-1 1.3-2.6-2.2-1.6 1.1 1.1 4 1 8.2a1.6 1.4 30.7 0 0 .3 1q1.6 2.3 1.1 5.4-.1.9 1 4.7a1.5 1 89.7 0 0 .5.8q.8.4 1.1-.5.2-.4.1-1.2-.8-4.6-.4-9.4-.7-6.7-1.2-15.2 0-.7-.4-1.4-.8-1.6-.4-2.4 3.7-.3 6.6 3 1 1.2 3 .7l.6.3v.8a1.9 1-64.4 0 0 0 1q3.6 10 3 20.4l-.5 9.8q-.7 5.2-3.6 9.4-1.7 2.3-4.5 3.3-2.5.9-5.3.4-3.6-.7-5.6-3.5-1.8-2.2-3.3-6.6-1.3-3.5-1.2-7.4l-2-10.3.4-3.2a1.3.8 37.3 0 0-.2-.9q-1-1.2-.1-2.6 1.5-.7 1-2.6t-.5-4 1.3-3.6q3.4-4 8.9-4.6"/><path fill="#25211c" d="M300.5 293q1-.2 2 .3-.4.7.4 2.3.4.6.4 1.4.5 8.5 1.2 15.3-.4 4.7.4 9.3v1.2q-.4 1-1.2.4a1.5 1 89.7 0 1-.5-.7q-1.1-3.8-1-4.7.6-3-1-5.5a1.6 1.4 30.7 0 1-.4-.9q.1-4.1-1-8.1-1-3.4 1.6-1.2 2.1 1.6 1-1.3a1 1 1.4 0 0-.6-.7q-3-1.2-2.1-4.2z"/><path fill="#443e38" d="M281.7 294.4q2.4.8 5.3 1.4.8.1 0 .3-4 .8-6.8-.9-2.1-1.2.6-1z"/><ellipse fill="#716257" rx="2.4" ry="1" transform="rotate(47.2 -273.3 306.7)"/><path fill="#443e38" d="M125.6 298q-.3 1.1-2 2.2-1.2.7-1.5 1.3-.4 1 0 2 .6 1.5-.5.4l-2-2.2q-1.2-1.3-.5-3l.7-.3q.5 0 .8.6a1 .7 69.5 0 0 .7.5q2.1 0 3.5-1.7 1.2-1.2.8.3"/><path fill="#faf3df" d="m331.1 297.7 3.2.5q1.6.2.5 1.4-1.6 1.7-4 1.4-5.3 1.2-10.7 1.2a1 1-15.2 0 1-.8-.4q-1.5-2.2 1.4-2.8 3.7-.2 7.2-1 1.7-.5 3.2-.3"/><path fill="#443e38" d="M169.2 298.5q.4 2 .1 2.6-2.3 5.2-6 9.5l-.3.4q-1.8 6.7-.4-.7l6-11.6z"/><path fill="#716257" d="m132.8 301-1.2 1.5a.2.2 53.5 0 1-.4 0l-1.2-3q2-1.1 2.8 1.5"/><path fill="#2c2925" d="M177.5 299.5v.8q-3.2 7.4-8 13.9-1.6 2-.8-.4 2.7-7.8 8.8-14.3"/><path fill="#443e38" d="M116.2 300.3q2 .2 1 1.5-1.5 2.1.8 3.7-2.7.8-2.1-1.5v-1q-.5-1.4.3-2.7"/><path fill="#25211c" d="M229.2 302.5q.2.7-.4.5l-.4-.6q-.3-3.4.8 0"/><path fill="#605449" d="M133.3 304q-1.2 4.4-5.6 2.2l-.6.3-2 3.4a.7.5-54 0 0 0 .7q1.5 1.5 3.6 1.5a1 .8-13.6 0 1 .8.4q.9 1.5-.6.5a1.4.4-8.1 0 0-.9-.1h-1.3a1.1.6 64.3 0 1-.8-.5q-1.4-2.2-3.6-.6a.4.3-32.1 0 1-.6 0v-.4l.2-.2q1.1-.9 2.8-3.8 2-3.6 6.3-1.7l.6-.2q.5-1 1.4-1.7.5-.3.3.3"/><path fill="#9e6950" d="M142.7 308.3q2 1.7-.8 1.3a.4.4-86.9 0 1-.4-.4q0-5 .7-1.8z"/><path fill="#403222" d="M288.8 307.3q.5.1 1 .5-1 1.4 0 2.6a1.3.8 37.3 0 1 .3.9l-.4 3.2q-1 0-1.2-.7-.8-2.9-.3-6a.5.5-80.2 0 1 .6-.5m29 2.2q1 .6 0 1l-.8-.2v-.6z"/><path fill="#89634b" d="M135.5 312.8q-.3.5-.2 1.1l-.3.8q-2.7 1.6-1 5.4.3.7-.3.2l-3.4-2.6q-.5-.4 0-.5.6-.2 2 1 .9 1 .5-.4-.7-3 1.7-5.2l.3-.4q1.2-2.2.7.6m154.4 6.9a.5.5-52.5 0 1 0 .8q-1.5 1.9-2.2.2a1 1 49.6 0 1 0-1q.7-1 2.2 0"/><path fill="#6a5133" d="M319 320.8v4.5a1 .6 81.8 0 1-.4.8q-1 .5-1.9-2.4a3.9 3.8-41.7 0 1 .2-2.6q.6-1.3 1.6-1a.8.6-84.3 0 1 .4.7"/><path fill="#403222" d="M317.3 332q.7 1.4-.5 2.8-.5.5-.6 1.1a1.2.8 84.6 0 1-.4.8q-1.4 1-.6-1.4.4-1.6 1-3.1.5-1.4 1.1-.1"/><path fill="#25211c" d="M444.5 341.8q-3.8 11-6.4 15.3-2 3.2-3 5.9-1.4 3.7-2.2 5-7.8 13.3-16.9 25.7l-.7.9q-1.2 1.3 1 2-4.2 6.4-8.1 10-6 5.6-10.7 11-1.1 1.2-2.5 2.3-3.6 2.7-.7 3l.5.5q-.3 1.7-2 2.3a1.5 1.4 5.3 0 0-.7.5q-1.7 2.5-4 0l-.3-.1q-4 2.8-8 7.7-.5.5-.7 1.1-1.4 3-4.3 3.5a1.4.7 41.8 0 1-.9-.3l-.3-.2-.6.1q-2.5 2.4-3.7 2.8-5.6 1.3-8.5 6a1 1 13.3 0 1-.8.5q-4.1.3-7.3 3.1-1.3 1.2-3.3 1.4l-.8.5q-.9 1.1-2 1.4l-1.5.4q-3.6 1.5-6 3.6-1.4 1.2-3.2 1.7-6.2 1.9-11.4 5.1-4.7 1.8-9.4 3.9-5.4 2.3-9.6 3.5-16.9 4.8-34.3 7.3-6 1.4-12.3 1.6-9.8.4-15.2 1.1-5.6.8-10.4.6l-6-1q-4-.6-8 .2-2.7.5-4.7.2-6.3-1-12.6-2.6-15.6-2.3-30.5-7.1-.5-.2-1-.1-2.2.3-4-.7l-2.7-1.4-24.3-10q-10.6-5.3-20.7-11.6-2.9-2.3-6-4.3-3.8-2.4-6-4.3-5.5-4.5-11.2-8.6-2-1.7-3.3-4 1-.1 1.2-1 0-.5-.5-1.2-3.7-4.3-8.4-7.6-1.4-1-.4-1a1.5 1 48.5 0 1 1 .2q4.9 3.1 7.1 5 2 1.8 3.7 2.9l2.3 1.3q28.4 18.3 63.5 32.4 6 2.4 9.4 2.8 3 .3 11.6 2.5 12.1 3.1 24.7 2.8 3.3 1 7.3.9 3.4-.1 7.2 1l23 .8q5.8-.5 11.7-.5 7.3-.1 11.6-.7 11.5-1.4 22.8-4 11.6-3.2 23.4-6 2.2-.6 4-2 4.8.5 8.6-3.7 1.5-1.8 4.6-2.8l3-.9q7.3-2.8 13.6-7.6 11.3-7.2 21.4-15.9 5.3-3.3 10-7.5a1.9.9 2.2 0 1 .9-.4q.8-.1 1.5-1 2.7-3 7-6l1-.7q.7-.3 1-1t.6-.8l9.5-9q14.5-12.9 24.9-29.2.9-1.4 5.7-7l1.8-3q.6-1.1 1.5-2 1.1-1 1.6-1.8 4-7 6.4-14.8a1 .8-84.3 0 1 .6-.6q1.5-.3.8 1.7M349 444.4q-6.3 2.6-11.6 6.9a1.6 1.3-16.6 0 0-.5.7q-.4 1.8 1.3 1.1.5-.2 1-.8 1.3-1.4 2.9-2.2l3-1.7q1.7-1.2 3.9-1.6l.5-.7q0-2 1.5-1.6h5.2q.9 0 .8-.6a1 .7 8.3 0 0-.7-.6l-2.8-.6q-2.3-.6-3.8 1.1-.3.4-.7.6m-209.3 10q2.4 1.5 6.5 2.9l3.3 1.5q2 1 4.5.2 2.8-1 0-1.6-7.2-1.6-13.8-5.2l-.8.2q-1 1 .3 2"/><path fill="#6e6053" d="M230.7 348.4q2-.6.6 1.6-5.5 8.7-6 10.8-1 3.7-4 6-.7.5-1.4.5-1.6 0-.6-2 1.8-2 2.6-4.5 1.7-5.7 4.3-11.1.4-1.7 2.3-1.2a4 4-46.2 0 0 2.2 0"/><path fill="#312f2a" d="M377.6 356q-2.5 3-5.7-.5-.4-.4.2-.5 2 0 3.7-1l1.4-.6q1.6-.4 1 1.4-.2.7-.6 1.3"/><path fill="#685b4f" d="M188.4 356q1.5 0 .4 1-2.8 2.8-3.7 6.6-.2.6-1.5 1.6l-.5.7q-1 4.5-4.2 7.8a1 1-56.2 0 1-.9.2q-1.8-.7-1-3 .7-2.1 2.4-2.6a.4.4-23 0 0 .3-.6l-.4-.6a1.2.9 41.7 0 1-.2-.8q.7-3 2.2-5.6 1.8-5.1 7.1-4.7"/><path fill="#6e6053" d="M132.5 369.6q1 0 .3 1.2-1.7 2.3-3 4.9-1.6 2.8-3.1 4.8-3.2 3.8-6 8-.7.6-1 0a1.2.8-52.6 0 1 0-1q4.2-9 11.9-17.6z"/><path fill="#685b4f" d="M328.3 373.7h.2l1.4.8a.8.5 18.6 0 1 .6.6q0 2-1.4 4.2t-1.9 6.2l-.9 3.4a.8.7-85.7 0 1-.6.6l-3.4.6a.9.7-20.5 0 1-.8-.3q-1.1-1.6-.3-3.6.6-1 1.7-1a.3.3 76 0 0 .3-.5q-.7-1.5.5-3.5 1.7-2.7 2.4-5.9.6-1.5 2.1-1.6m54.6 1h1.9a.4.4 2.6 0 1 .4.4q-.4 2.2-2.7 3.2a1 1 68.9 0 1-1-.5q-1.8-5 .5-3.4a1.6 1 48.5 0 0 1 .3m-2.4 4q0 2 2.9 1.7a1 1 .3 0 1 .7.7q-.9 5.9-2.8 12.1-.8 2.7-2.8-.4a3.1 3 34.7 0 1-.4-2.3l.6-4q-.5-3.9.9-7.5l.1-.6q0-.5.5-.4a.7.5-82.9 0 1 .3.7"/><path fill="#6e6053" d="M249 389a.4.4 23.5 0 1 .3.5q-2.8 5.3-5 10.7-3 7.3-8.7 11.9-1.6 1.3-1.2-.7.6-3 2.6-3.8l.3-.6-.6-1.5a1 1 46.5 0 1 0-1q3.2-7.6 7.8-14.5.8-1.3 1.9-1.4 1.1-.2 2.6.3m37.8 5.4q-.9 3-2.2 6.2-.4.8-1.7 4.7-.8 2.4-2.2 4.5-1.6 2.5-2.3 3.2-1.3 1.4-3.5 2-1.7.4-.8-1.2.3-.5 1.1-1a1 1-11.4 0 0 .6-.7q.9-5 3.5-9.2.8-2.9 2.4-5.4 1-3 3.6-4.3 2.1-1.2 1.5 1.1"/><path fill="#685b4f" d="m351.5 398.8-.7 2.2q-.6 2.4-1.4 4.7-.8 2.2-1.1 4.7-.9 5.5-4 10.4-1.5 2.5-2.5-.3-1-3 .6-7.4 1-2.9 1.8-5.9 1.4-3.9 1.6-5.2.4-3.5 4.9-4.2a.8.7-85.4 0 1 .8 1m-155.9 2.4a1.2 1.2 10.2 0 1 1.1 1.6q-1 2.8-2.8 4.8-2.9 3-4.5 6.7a1.7 1.1 59.5 0 0 0 1q.5 2-2.4 3.5-1.8 1-2.2-1.1-.2-1.7 1-4.6 3.8-8.4 5.2-9.9 2-2 4.6-2"/><path fill="#25211c" d="M411.8 406.7q-1.1.5-1-.6.1-.4.4-.7 2-2.1 1.2.6a1.2 1 89.5 0 1-.6.7"/><path fill="#685b4f" d="M313.8 418.5q-2 3.7-4.6 7.2-1 1.4-2.4 4.4-1.5 3-4.2 5.3h-.7q-1.2-1-.6-2.6l7.7-16.4a2.2 1.9-82.1 0 1 1.3-1q5.9-1.6 3.4 3M148 420q-2.3 5.7-6 9.8-.4.6-1.2 3l-2.5 3.5q-3.1 4-2.8-1.6 3.7-6.5 4.7-9.3 1.7-4.7 6-6.8 2.8-1.3 1.7 1.5m82.7 14.7q2 .2.7 2.3-.6 1-.8 3.1-.4 1.8-1.8 2.8l-.6.8q-2.7 5.7-7.3 10.3l-.9 1q-.7 1-1.8.5a1.5 1.5-59.7 0 1-.5-2.2l7.7-11.4q1.2-1.3 1.7-3 .7-2.4 2.7-3.9zm91.7 9.2q-1.3.5-.8 2 .6 2-1 3.3l-.3.7q1 3.3-1.7 5.7-1.8 1.5-4 2 .3-4.7 2.3-9 .4-3.7 2.4-6.9.7-1.2 2-1.7 4-1.6 1.8 3.3a1.4 1-6.4 0 1-.7.6"/><path fill="#605449" d="M267.5 440.8q0 .6-1.2 2.5-3.8 6.3-7.9 12.4-.9 1.3-1.4-.2-.8-2.1.6-4.2 2.3-5.4 6-10 1.8-1.3 3.9-.5"/><path fill="#685b4f" d="M186 443q.4 2.8-1.5 5-1.8 2-2.3 3.1l-2.6 6q-.6 1.4-1.4 1.8-1 .4-2.5-.2a1 1 22.3 0 1-.5-1.2q3.2-8 8.4-14.6.6-.7 1-.9 1.2-.4 1.4 1"/><path fill="#312f2a" d="M353.5 442.8q1.4 0 2.8.5a1 .7 8.3 0 1 .7.6q0 .6-.8.6H351q-1.5-.4-1.5 1.6l-.5.6q-2.2.5-4 1.7l-3 1.7q-1.5.8-2.7 2.2-.6.6-1.1.8-1.7.7-1.3-1a1.6 1.3-16.6 0 1 .5-.9q5.3-4.2 11.6-6.8.4-.2.7-.6 1.5-1.7 3.8-1m-213.3 9.4q6.6 3.6 13.9 5.2 2.7.7-.1 1.6-2.4.8-4.5-.2l-3.3-1.5q-4.1-1.4-6.5-3-1.3-.8-.3-2h.8"/></svg>